<?xml version="1.0" encoding="UTF-8"?>
<!-- Generated by Pixelmator Pro 3.5.1 -->
<svg width="155" height="183" viewBox="0 0 155 183" xmlns="http://www.w3.org/2000/svg">
    <path id="path92" fill="#000000" stroke="none" d="M 113.199249 183.01001 C 114.249237 181.480057 115.040436 178.869019 115.400421 177.049072 C 115.444115 176.824295 115.484512 176.601837 115.521515 176.381104 C 115.48468 176.598206 115.443489 176.81778 115.400421 177.039307 L 115.390656 177.039307 C 114.550629 173.139313 110.539734 159.21962 109.429718 157.109619 C 108.995102 156.286163 108.701469 156.288834 108.56839 156.318604 C 108.704002 156.292297 108.993034 156.300751 109.419952 157.109619 C 110.529938 159.209595 114.540894 173.139343 115.38089 177.039307 L 115.390656 177.039307 C 115.040649 178.859253 114.239471 181.470261 113.189484 183.000244 C 112.465958 183.000244 111.743057 183.000244 111.009796 183.000244 C 111.003326 183.000244 110.996735 183.000244 110.990265 183.000244 C 110.476471 183.000244 109.952995 183.000244 109.439484 183.000244 C 109.624557 181.251297 108.932533 179.709625 108.058624 178.744385 C 108.928864 179.710373 109.614281 181.251465 109.429718 183.000244 C 109.11972 183.000244 108.800262 183.000244 108.490265 183.000244 C 108.325943 182.378159 108.071793 181.755829 107.763702 181.25415 C 108.069908 181.756195 108.319359 182.379166 108.480499 183.000244 C 107.227104 183.000244 105.983925 183.000244 104.730499 183.000244 C 104.727257 183.000244 104.723969 183.000244 104.720734 183.000244 C 103.993958 183.000244 103.266029 183.000244 102.529327 183.000244 C 102.21933 183.000244 101.899864 183.000244 101.589874 183.000244 C 100.329865 183.000244 99.080322 183.000244 97.820343 183.000244 C 97.610321 183.000244 97.399475 183.000244 97.189484 183.000244 C 96.772728 183.000244 96.356239 183.000244 95.939484 183.000244 C 95.936218 183.000244 95.932976 183.000244 95.929718 183.000244 C 95.723022 183.000244 95.517303 183.000244 95.310577 183.000244 C 94.370575 183.000244 93.430267 183.000244 92.490265 183.000244 C 93.01152 182.036499 93.344444 181.226578 93.679718 180.490479 C 93.344131 181.224075 93.010239 182.029099 92.490265 182.990479 C 81.72039 182.990479 70.939827 182.990479 60.169952 182.990479 C 60.139954 176.1306 58.109501 176.099243 54.519562 175.459229 C 53.628189 175.300598 53.476864 175.149017 52.832062 175.127197 C 53.461594 175.151642 53.61731 175.304092 54.500031 175.461182 L 54.509796 175.470947 C 58.099731 176.120941 60.130188 176.140335 60.160187 183.000244 C 59.640202 183.000244 59.109859 183.000244 58.589874 183.000244 C 58.173145 183.000244 57.756626 183.000244 57.339874 183.000244 C 57.336609 183.000244 57.333374 183.000244 57.330109 183.000244 C 56.283447 183.000244 55.245968 183.000244 54.199249 183.000244 L 54.199249 181.740479 C 54.520874 181.276962 54.825455 180.93811 55.109406 180.715088 C 54.822613 180.936752 54.514874 181.273453 54.189484 181.740479 L 54.189484 183.000244 C 53.462719 183.000244 52.736671 183.000244 52.000031 183.000244 C 51.996815 183.000244 51.993481 183.000244 51.990265 183.000244 C 51.683281 183.000244 51.365402 183.000244 51.058624 183.000244 C 50.008636 183.000244 48.96994 183.000244 47.919952 183.000244 C 47.713181 183.000244 47.505623 183.000244 47.298859 183.000244 C 47.295624 183.000244 47.292328 183.000244 47.289093 183.000244 C 46.772217 183.000244 46.2453 183.000244 45.728546 183.000244 C 45.726974 182.997162 45.726196 182.993576 45.72464 182.990479 C 44.469971 182.990479 43.225521 182.990479 41.970734 182.990479 C 33.760857 165.290756 41.179134 160.970566 43.539093 150.980713 C 43.607418 150.707306 43.48711 150.347519 43.53714 150.060791 C 43.534531 150.063995 43.531944 150.067352 43.529327 150.070557 C 44.299316 146.500763 44.889099 142.920258 44.789093 139.240479 C 44.785984 139.239288 44.78244 139.237762 44.779327 139.236572 C 44.878555 142.914459 44.299145 146.482727 43.519562 150.060791 L 43.529327 150.049072 C 43.46933 150.339081 43.599335 150.71048 43.529327 150.990479 C 41.714226 147.380264 40.636059 152.551666 38.527374 156.914307 C 38.527542 156.916992 38.527214 156.919418 38.527374 156.922119 C 40.634743 152.561493 41.713753 147.394684 43.527374 150.996338 C 41.165848 160.981995 33.750736 165.303925 41.959015 183.000244 C 41.32901 183.000244 40.700134 183.000244 40.080109 183.000244 L 36.160187 176.099854 C 33.400204 179.979828 33.9394 183.590134 31.609407 177.670166 C 32.15089 176.50264 35.846344 169.273621 36.753937 166.748291 C 35.839336 169.280289 32.141891 176.494003 31.609407 177.6604 C 30.990589 176.093369 30.171463 174.34761 30.039095 172.650635 C 30.038843 172.647415 30.039341 172.644089 30.039095 172.640869 C 30.039095 172.543381 30.039095 172.436951 30.039095 172.340088 C 30.089506 171.971451 30.135347 171.58902 30.177767 171.199463 C 30.135643 171.585724 30.089094 171.964691 30.039095 172.330322 C 28.919109 169.750351 28.089327 166.920151 27.529329 164.170166 C 27.731201 163.771347 27.960325 163.35762 28.17972 162.94165 C 27.959702 163.357605 27.727005 163.770111 27.519564 164.170166 C 27.249575 162.860184 27.07065 161.420059 26.890657 160.090088 C 26.893705 160.08847 26.897352 160.085938 26.900423 160.084229 C 26.660561 158.306244 26.359463 156.548019 26.269564 154.76001 C 26.495663 154.716934 26.64558 154.57518 26.757845 154.371338 C 26.644974 154.571075 26.493109 154.707672 26.269564 154.750244 C 26.269564 154.650238 26.269564 154.539703 26.269564 154.439697 C 26.199587 152.639679 26.149569 150.240692 26.269564 148.480713 C 27.909571 147.80069 28.790903 140.860535 29.880892 140.320557 C 29.909624 140.306183 29.936249 140.293716 29.964876 140.2854 C 29.933195 140.293915 29.901049 140.304932 29.869173 140.320557 C 28.779188 140.860535 27.899771 147.80069 26.259798 148.480713 C 26.579714 143.761627 27.668322 139.111832 30.027376 134.992432 C 8.617457 122.234283 0.100527 106.354507 0.2305 81.490479 C 0.310483 64.731339 3.589837 47.8983 12.779328 33.62915 C 13.919291 37.019135 17.249832 42.410339 19.67972 45.080322 C 35.248886 62.14949 57.991047 56.430313 71.150421 73.949463 C 71.70536 74.688553 72.211739 75.482277 72.683624 76.299072 C 72.211121 75.478264 71.705421 74.682198 71.150421 73.939697 C 57.991058 56.420532 35.248871 62.139679 19.67972 45.070557 C 17.239824 42.400543 13.91929 36.99939 12.779328 33.619385 C 12.74933 33.529388 12.760743 32.989075 12.470735 32.049072 C 11.090783 27.61908 10.759477 22.950775 9.019563 18.560791 L 9.326203 17.314697 C 7.889509 15.097565 7.490523 13.348328 7.130891 10.730713 C 6.800901 8.330688 6.610746 5.919983 6.970735 3.51001 C 7.720681 7.040009 9.279186 10.719788 12.459016 12.769775 C 11.439081 9.379791 11.96042 6.030548 12.150422 2.570557 C 14.270308 8.070557 18.339561 10.680481 23.449251 13.240479 C 37.598377 20.340485 36.399975 15.099945 49.029327 12.929932 C 62.15868 10.669922 93.361496 10.679382 106.140656 13.869385 C 113.630211 15.73938 114.380661 19.729156 127.009796 15.12915 C 128.739777 14.499146 131.360718 13.230804 132.970734 12.310791 C 137.540741 9.690796 142.570496 6.189148 142.230499 0.37915 C 143.110474 4.209137 143.519775 9.169525 141.759796 12.779541 C 142.469788 13.189545 144.899017 10.170868 145.209015 9.640869 C 147.069031 6.500885 148.30072 -0.71965 147.720734 9.949463 C 147.700745 10.27948 147.269867 12.189941 147.089874 12.929932 L 147.089874 12.9104 C 146.810867 14.046356 146.660004 14.379074 146.154327 15.4104 C 146.795456 16.626572 146.079239 17.722824 145.839874 18.849854 L 145.839874 18.869385 C 144.979889 22.929382 144.059235 27.530182 142.699249 31.420166 C 142.609222 31.690186 141.959473 32.629944 141.439484 33.929932 C 131.240326 59.758667 106.678772 54.619995 89.34964 66.87915 C 87.368462 68.277222 85.472862 69.84359 83.75589 71.576416 C 85.47348 69.847534 87.370468 68.287537 89.34964 66.890869 C 89.35952 66.888687 89.369064 66.885262 89.378937 66.883057 C 106.715897 54.659134 131.248199 59.768608 141.429718 33.959229 C 154.358871 48.628403 157.340179 84.950363 152.410187 102.529541 C 148.860168 115.208694 137.489426 128.389557 125.740265 134.37915 C 125.73452 134.379028 125.728439 134.379257 125.722687 134.37915 C 124.423981 135.274292 124.950577 135.129639 125.119171 136.240479 C 125.39917 138.040497 126.82074 138.959137 126.220734 140.62915 C 125.988159 140.684479 125.768501 140.736832 125.560577 140.783447 C 125.771156 140.73674 125.994621 140.685272 126.230499 140.62915 C 126.830475 138.959137 125.410889 138.030487 125.13089 136.240479 C 127.100891 137.240479 127.670441 144.629547 128.900421 146.279541 L 128.890656 146.279541 C 128.692612 146.321976 128.375473 146.229523 128.156281 146.115479 C 128.375107 146.232574 128.692215 146.329147 128.890656 146.279541 C 128.890656 147.459534 129.089783 149.409637 128.259796 150.359619 C 128.256714 150.363159 128.253159 150.365921 128.250031 150.369385 C 129.890045 149.839386 129.150879 154.250717 128.88089 156.650635 C 128.851212 156.957321 128.918167 157.282928 128.88089 157.580322 L 128.890656 157.580322 C 128.631256 159.535645 127.7257 161.589722 127.324249 163.525635 C 127.326187 163.526855 127.328163 163.528336 127.330109 163.529541 C 126.780121 166.239471 126.219238 168.719238 125.449249 171.37915 L 123.410187 167.929932 L 123.406281 167.951416 L 125.439484 171.390869 C 125.01947 172.830811 124.699738 173.740417 124.179718 175.1604 C 124.178299 175.160477 124.177231 175.160324 124.175812 175.1604 C 123.598503 176.748184 123.377838 178.60347 122.609406 180.170166 C 121.880791 178.084656 120.916466 176.882751 120.929718 176.170166 C 120.904099 176.882446 121.876297 178.086868 122.609406 180.179932 C 121.564369 181.244858 121.421944 179.635239 121.351593 179.551025 C 121.351067 179.554184 121.350182 179.557648 121.34964 179.560791 C 120.019623 178.180832 119.210022 176.08963 119.000031 176.109619 L 115.080109 183.01001 C 114.450134 183.01001 113.819244 183.01001 113.199249 183.01001 Z M 43.527374 150.996338 C 43.527851 150.994324 43.528851 150.992493 43.529327 150.990479 L 43.529327 151.000244 C 43.528629 150.998856 43.528072 150.997711 43.527374 150.996338 Z M 105.041046 181.4104 C 105.131653 179.256332 105.359589 178.448761 105.34964 178.289307 C 105.352371 178.282776 105.356606 178.278152 105.359406 178.271729 C 105.343399 177.287338 104.814377 176.187363 105.050812 175.154541 C 105.047096 175.15387 105.042801 175.153259 105.039093 175.152588 C 104.81015 176.182053 105.339638 177.299911 105.34964 178.289307 C 105.34964 178.448761 105.121742 179.246445 105.041046 181.4104 Z M 107.300812 180.642822 C 107.300812 180.642822 107.300812 180.640869 107.300812 180.640869 C 107.270607 180.609818 107.237938 180.58522 107.207062 180.556885 C 107.23822 180.585709 107.270172 180.611191 107.300812 180.642822 Z M 75.699249 180.170166 L 80.714874 175.156494 L 80.709015 175.150635 L 75.695343 180.164307 L 75.699249 180.170166 Z M 86.998077 179.506104 C 88.18515 178.155975 89.624809 176.217468 90.140656 176.090088 C 90.224648 176.069473 90.303291 176.051758 90.378937 176.039307 C 90.300659 176.051758 90.21833 176.068634 90.13089 176.090088 C 89.615944 176.217239 88.184029 178.154678 86.998077 179.506104 Z M 65.029327 179.230713 C 67.014099 177.765457 68.999634 176.302597 70.984406 174.843994 L 70.980499 174.840088 C 68.995728 176.305344 67.010201 177.768219 65.025421 179.226807 C 65.026566 179.228226 65.028183 179.229294 65.029327 179.230713 Z M 57.566437 179.045166 C 57.490875 178.935654 57.411537 178.832581 57.328156 178.736572 C 57.411232 178.832748 57.491112 178.935532 57.566437 179.045166 Z M 46.673859 177.668213 C 46.853256 177.599564 47.011662 177.542816 47.152374 177.498291 C 47.013134 177.541977 46.855003 177.596725 46.677765 177.664307 C 46.676823 177.665756 46.674801 177.666763 46.673859 177.668213 Z M 95.591827 177.636963 C 95.787758 177.446106 96.003906 177.251663 96.244171 177.052979 C 96.246262 177.048401 96.247932 177.043884 96.250031 177.039307 C 96.37706 176.933838 96.499054 176.834885 96.617218 176.740479 C 96.502518 176.831985 96.382813 176.927399 96.259796 177.029541 C 96.256126 177.032593 96.253693 177.036255 96.250031 177.039307 C 96.005943 177.242828 95.789658 177.441925 95.591827 177.636963 Z M 92.136749 176.32251 C 92.784386 176.246628 93.746132 175.086472 97.355499 169.506104 C 97.353653 169.504044 97.351486 169.502304 97.34964 169.500244 C 93.755264 175.057663 92.784248 176.235916 92.136749 176.32251 Z M 115.623077 175.724854 C 115.684242 175.297058 115.733818 174.877869 115.771515 174.465088 C 115.733711 174.877289 115.68428 175.297668 115.623077 175.724854 Z M 48.990265 175.69165 C 49.870907 175.342819 50.862347 175.235428 51.986359 175.1604 C 51.987228 175.157639 51.989216 175.155289 51.990265 175.152588 C 50.864262 175.228149 49.871723 175.338135 48.990265 175.69165 Z M 99.578156 175.19751 C 100.409706 175.068054 101.346687 175.14679 102.839874 175.1604 L 102.839874 175.150635 C 101.348465 175.141235 100.410431 175.066406 99.578156 175.19751 Z M 105.029327 175.148682 C 105.029327 175.148682 105.029327 175.146729 105.029327 175.146729 C 104.923203 175.128006 104.821243 175.114075 104.72464 175.10376 C 104.821487 175.114349 104.923103 175.129547 105.029327 175.148682 Z M 122.769562 172.330322 L 122.771515 172.310791 C 120.563774 169.563904 118.208351 166.725662 116.660187 163.529541 C 116.728378 163.508942 116.794693 163.485443 116.859406 163.463135 C 116.791817 163.486572 116.721825 163.50798 116.650421 163.529541 L 116.650421 163.539307 C 116.650421 163.539307 116.615189 163.497025 116.564484 163.435791 C 116.612846 163.495056 116.645424 163.539078 116.650421 163.549072 L 116.650421 163.539307 C 118.200439 166.739182 120.55957 169.580399 122.769562 172.330322 Z M 118.869171 171.918213 C 118.355415 170.883438 117.953804 170.134583 117.900421 169.980713 C 117.841866 169.812149 117.790756 169.648315 117.748077 169.488525 C 117.790863 169.651077 117.840805 169.818848 117.900421 169.990479 C 117.953583 170.14682 118.356873 170.891098 118.869171 171.918213 Z M 49.339874 171.699463 L 49.343781 171.695557 C 48.264473 171.033218 46.8479 166.559052 46.209015 166.369385 C 46.181004 166.360611 46.148891 166.35614 46.115265 166.35376 C 46.14603 166.356369 46.173313 166.361267 46.199249 166.369385 C 46.839233 166.569397 48.259888 171.059494 49.339874 171.699463 Z M 59.214874 171.693604 L 59.220734 171.687744 C 57.922855 170.242401 56.387787 168.956467 55.310577 167.310791 L 55.304718 167.314697 C 56.383053 168.960159 57.917252 170.257416 59.214874 171.693604 Z M 78.500031 170.119385 L 78.509796 170.109619 L 73.189484 164.789307 C 73.185715 164.792313 73.181534 164.794113 73.177765 164.797119 L 78.500031 170.119385 Z M 32.080109 168.890869 C 34.900093 165.250916 36.539822 161.039215 38.509796 156.959229 C 38.511322 156.956085 38.512177 156.952606 38.513702 156.949463 L 38.509796 156.949463 C 36.529804 161.029465 34.890121 165.239151 32.080109 168.87915 C 31.993923 168.227142 31.91255 167.649475 31.837923 167.133057 C 31.912632 167.652908 31.993311 168.234222 32.080109 168.890869 Z M 90.429718 167.929932 C 90.432083 167.926056 90.433212 167.922089 90.435577 167.918213 L 84.800812 163.220947 L 84.791046 163.230713 L 90.429718 167.929932 Z M 42.121124 167.832275 C 42.16457 167.83432 42.209991 167.83223 42.257843 167.828369 C 41.951721 167.851074 41.732372 167.755325 41.660187 167.470947 L 45.740265 153.6604 C 48.090942 152.461746 50.442322 151.25827 52.792999 150.052979 L 52.789093 150.049072 C 50.435818 151.249054 48.083775 152.453766 45.730499 153.6604 L 41.650421 167.470947 C 41.712299 167.716568 41.881138 167.820953 42.121124 167.832275 Z M 110.777374 167.761963 C 110.735245 167.75354 110.688507 167.740906 110.636749 167.7229 C 109.860435 167.45285 108.076393 166.167038 107.550812 165.740479 C 107.550232 165.743103 107.549446 165.745667 107.548859 165.748291 C 108.086411 166.190582 109.871483 167.467117 110.636749 167.7229 C 110.636749 167.7229 110.638702 167.724854 110.638702 167.724854 C 110.689636 167.741791 110.736214 167.7547 110.777374 167.761963 Z M 36.75589 166.744385 C 36.816246 166.576248 36.864716 166.429932 36.898468 166.306885 C 36.864296 166.429825 36.816128 166.577393 36.75589 166.744385 Z M 117.589874 166.539307 C 117.589363 166.536697 117.590546 166.531693 117.589874 166.529541 C 117.139893 165.259613 116.479584 164.320129 116.019562 162.920166 C 116.082855 162.928619 116.201004 163.034088 116.31839 163.156494 C 116.31839 163.156494 116.31839 163.154541 116.31839 163.154541 C 116.200706 163.029037 116.082016 162.918716 116.019562 162.9104 C 115.930809 162.629333 115.867668 162.289276 115.792999 161.9729 C 115.766716 161.861542 115.740257 161.752167 115.709015 161.650635 C 115.711105 161.646027 115.712784 161.641556 115.714874 161.636963 C 114.915901 159.167206 113.750473 157.38298 112.584015 152.564697 C 112.579147 152.565826 112.574814 152.567444 112.570343 152.568604 C 112.570343 152.568604 112.570343 152.570557 112.570343 152.570557 C 113.740326 157.410385 114.909027 159.190247 115.709015 161.670166 C 115.739014 161.765167 115.767685 161.866653 115.792999 161.9729 C 115.868935 162.291656 115.929565 162.644928 116.019562 162.929932 C 116.479584 164.329865 117.139893 165.269348 117.589874 166.539307 Z M 106.609406 164.170166 C 108.949432 163.350189 107.089935 159.360504 106.919952 155.070557 C 107.082382 159.356781 108.937645 163.341019 106.609406 164.1604 C 106.279419 163.9104 99.960815 159.689789 99.550812 159.769775 C 99.548988 159.770096 99.546799 159.771317 99.544952 159.771729 C 100.051773 159.765472 106.262741 163.912567 106.589874 164.1604 L 106.609406 164.170166 Z M 31.17972 163.554932 C 31.061495 163.216156 30.969431 163.222153 30.890657 163.482666 C 30.969074 163.233536 31.063257 163.228912 31.17972 163.554932 Z M 96.802765 162.959229 C 96.224052 162.899231 95.845833 162.493271 95.339874 162.435791 C 95.843948 162.500183 96.222031 162.906479 96.802765 162.959229 Z M 28.418001 162.4729 C 28.552971 162.202103 28.681124 161.932175 28.787142 161.66626 C 28.784355 161.664261 28.782124 161.662415 28.779329 161.6604 C 28.676598 161.930069 28.551994 162.201462 28.418001 162.4729 Z M 118.503937 162.359619 C 119.372688 161.218689 118.847427 159.810455 117.908234 159.670166 C 118.840492 159.817581 119.360512 161.222076 118.503937 162.359619 Z M 29.703157 162.051025 C 29.729378 162.052475 29.753956 162.051758 29.779329 162.051025 C 29.735674 162.052719 29.690756 162.050003 29.644564 162.045166 C 29.663843 162.047348 29.68432 162.049988 29.703157 162.051025 Z M 29.861361 162.043213 C 30.430216 161.971863 30.777098 161.333344 30.988314 160.406494 C 30.985453 160.404694 30.983368 160.402435 30.980501 160.400635 C 30.770496 161.325943 30.425987 161.966171 29.861361 162.043213 Z M 34.603546 161.412354 C 34.807728 161.053802 34.671902 160.49292 34.759796 160.400635 C 35.199799 159.930634 36.470123 159.450851 36.330109 157.890869 C 36.625427 156.998383 37.446114 156.14473 37.998077 156.140869 C 37.446285 156.128265 36.608791 156.989624 36.310577 157.890869 C 36.310577 157.800873 35.609314 156.340546 35.529327 156.320557 C 35.526268 156.319962 35.522655 156.321106 35.519562 156.320557 C 35.609558 156.340546 36.300812 157.800873 36.300812 157.890869 L 36.310577 157.890869 C 36.450214 159.45665 35.187424 159.927979 34.744171 160.396729 C 34.746368 160.397781 34.747829 160.399582 34.750031 160.400635 C 34.666702 160.492722 34.805233 161.053467 34.603546 161.412354 Z M 28.927767 161.256104 C 29.06719 160.854797 29.182611 160.465836 29.287142 160.111572 C 29.182529 160.46582 29.067215 160.854797 28.927767 161.256104 Z M 31.302767 159.898682 C 31.318714 159.83345 31.325256 159.761292 31.320345 159.683838 C 31.315434 159.606384 31.298147 159.523407 31.263704 159.433838 C 31.298147 159.523392 31.315434 159.606384 31.320345 159.683838 C 31.325256 159.761292 31.318714 159.833466 31.302767 159.898682 Z M 30.980501 158.990479 C 30.937635 158.94194 30.895737 158.897247 30.855501 158.855713 C 30.895412 158.896957 30.938002 158.942352 30.980501 158.990479 Z M 117.169952 158.236572 C 117.20977 158.235718 117.24971 158.231384 117.291046 158.226807 C 117.225777 158.233688 117.163017 158.234955 117.101593 158.232666 C 117.124542 158.233414 117.146461 158.237076 117.169952 158.236572 Z M 116.310577 157.888916 C 116.310577 157.888916 116.312531 157.888916 116.312531 157.888916 C 115.862396 157.437851 115.71521 156.626022 115.970734 155.939697 C 115.970734 155.939697 115.968781 155.94165 115.968781 155.94165 C 115.70932 156.629501 115.857376 157.439697 116.310577 157.888916 Z M 69.119171 157.580322 C 70.139191 157.130341 74.379578 152.290253 74.769562 152.250244 C 74.766411 152.250473 74.762917 152.249939 74.759796 152.250244 C 74.370499 152.290176 70.155136 157.11116 69.115265 157.576416 L 69.119171 157.580322 Z M 108.490265 156.334229 C 108.496735 156.335602 108.508087 156.332886 108.519562 156.330322 C 108.505615 156.333694 108.495262 156.335327 108.490265 156.330322 C 108.490196 156.331619 108.490334 156.332932 108.490265 156.334229 Z M 32.511749 155.984619 C 32.516754 155.985138 32.522305 155.984283 32.527374 155.984619 C 31.713821 155.901642 31.783327 153.51651 30.890657 153.496338 C 31.773071 153.533325 31.701902 155.901901 32.511749 155.984619 Z M 78.730499 155.402588 C 78.767311 155.402405 78.804169 155.396942 78.839874 155.390869 C 78.843033 155.390335 78.846497 155.391449 78.84964 155.390869 L 83.554718 151.314697 L 83.550812 151.310791 L 78.839874 155.390869 C 78.762985 155.405136 78.683449 155.403259 78.601593 155.390869 C 78.645531 155.398041 78.68792 155.402802 78.730499 155.402588 Z M 87.949249 155.390869 L 92.025421 150.683838 L 92.019562 150.679932 L 87.94339 155.38501 L 87.949249 155.390869 Z M 56.88089 155.37915 L 63.154327 150.994385 L 63.150421 150.990479 L 56.876984 155.373291 L 56.88089 155.37915 Z M 26.757845 154.369385 C 26.794931 154.301834 26.829357 154.22876 26.859407 154.148682 C 26.829014 154.228119 26.795498 154.302536 26.757845 154.369385 Z M 96.419952 154.12915 C 97.187721 152.88562 97.752136 151.986328 98.232452 151.383057 C 97.75103 151.984024 97.183105 152.879868 96.414093 154.123291 L 96.419952 154.12915 Z M 28.535189 153.845947 C 28.545374 153.84613 28.554556 153.842804 28.564486 153.842041 C 28.540905 153.842987 28.517181 153.842728 28.49222 153.840088 C 28.506571 153.841721 28.521334 153.845688 28.535189 153.845947 Z M 27.076204 153.359619 C 27.115555 153.202332 27.159214 153.041473 27.209017 152.87915 C 27.31464 152.53978 27.406082 152.235214 27.484407 151.961182 C 27.406103 152.232666 27.31354 152.533554 27.209017 152.869385 C 27.158394 153.034393 27.115585 153.19931 27.076204 153.359619 Z M 38.320343 151.6604 C 38.321548 151.660843 38.323044 151.659973 38.324249 151.6604 C 37.824867 151.478836 37.385578 150.78656 37.09964 149.420166 C 37.097248 149.424774 37.096172 149.42923 37.093781 149.433838 C 37.382114 150.790771 37.821415 151.479462 38.320343 151.6604 Z M 127.615265 150.615479 C 127.747116 150.622543 127.870537 150.603012 127.982452 150.556885 C 127.019562 150.926483 125.195015 149.216614 125.367218 148.8479 C 125.181564 149.153183 126.611359 150.561676 127.615265 150.615479 Z M 119.476593 150.607666 C 119.623207 150.61412 119.841362 150.553711 120.132843 150.424072 C 119.5951 150.657883 119.318237 150.636871 119.242218 150.465088 C 119.2742 150.549026 119.347458 150.60199 119.476593 150.607666 Z M 120.603546 150.189697 C 120.744194 150.111496 120.894157 150.025101 121.058624 149.922119 C 120.894676 150.024307 120.743378 150.112625 120.603546 150.189697 Z M 26.578157 149.85376 C 26.620787 149.537598 27.364176 147.942062 28.150423 147.230713 C 28.247438 147.960861 28.377098 148.001312 28.539095 147.838135 C 28.381594 147.98938 28.25519 147.935944 28.160189 147.220947 C 28.463943 146.945328 28.552668 146.653961 28.668001 146.63501 C 28.547541 146.63858 28.462677 146.937622 28.150423 147.220947 C 27.352009 147.943329 26.599255 149.565765 26.578157 149.85376 Z M 122.095734 149.217041 C 122.396278 148.998383 122.714363 148.761932 123.070343 148.480713 L 123.06839 148.47876 C 122.717209 148.755417 122.392876 149.001236 122.095734 149.217041 Z M 125.427765 148.795166 C 125.431969 148.793427 125.434875 148.790756 125.439484 148.789307 C 125.279984 148.603836 125.43541 148.239746 125.66214 147.843994 C 125.43251 148.240967 125.27121 148.606659 125.427765 148.795166 Z M 120.718781 148.47876 C 120.722618 148.475998 120.726654 148.473694 120.730499 148.470947 L 117.750031 145.959229 C 116.250282 145.529312 116.930107 150.257385 112.892609 145.961182 C 112.892326 145.964386 112.890854 145.967743 112.890656 145.970947 C 112.470642 145.520935 112.279236 144.890625 111.949249 144.400635 C 111.839233 144.240631 111.740631 143.939789 111.640656 143.769775 C 111.481499 143.517792 111.4198 143.359055 111.427765 143.271729 C 111.418282 143.323685 111.43383 143.401489 111.490265 143.519775 C 111.413948 143.381805 111.339912 143.248642 111.294952 143.152588 C 111.248947 143.054306 111.219231 142.976578 111.199249 142.914307 C 111.218208 142.976334 111.24968 143.05426 111.294952 143.152588 C 111.342316 143.255463 111.419754 143.399384 111.503937 143.551025 C 111.545975 143.626755 111.578133 143.689911 111.63089 143.779541 C 111.730896 143.949524 111.839478 144.250397 111.939484 144.4104 C 111.937424 144.412949 111.935677 144.415649 111.933624 144.418213 C 112.260651 144.8974 112.451256 145.532913 112.869171 145.980713 L 112.88089 145.970947 C 116.93058 150.270782 116.250275 145.540955 117.740265 145.970947 L 120.718781 148.47876 Z M 111.503937 143.551025 C 111.497765 143.538864 111.495743 143.531265 111.490265 143.519775 C 111.535332 143.601257 111.573112 143.671616 111.63089 143.769775 C 111.578392 143.686646 111.536247 143.614685 111.503937 143.551025 Z M 122.613312 148.162354 C 122.873856 148.035721 123.137955 147.916153 123.378937 147.783447 C 123.136276 147.91571 122.870613 148.033051 122.609406 148.1604 L 122.613312 148.162354 Z M 44.460968 148.150635 C 45.362431 145.152527 45.08046 140.674255 45.408234 139.605713 C 45.065922 140.613281 45.360542 145.123245 44.460968 148.150635 Z M 29.009798 147.283447 C 29.035805 147.262848 29.063002 147.244461 29.089876 147.230713 C 31.199856 146.160706 33.269238 144.909546 35.369171 143.779541 C 35.377972 143.869019 35.388641 143.943939 35.398468 144.023682 C 35.388203 143.940811 35.378323 143.86322 35.369171 143.769775 C 33.271755 144.898392 31.205008 146.147903 29.097689 147.217041 C 29.098501 147.218597 29.098825 147.219391 29.099642 147.220947 C 29.068535 147.236862 29.039745 147.258545 29.009798 147.283447 Z M 125.189484 147.121338 C 125.232056 147.121292 125.272011 147.114746 125.310577 147.105713 C 125.061661 147.158768 124.746933 147.046783 124.339874 146.590088 C 124.339249 146.596161 124.338623 146.601654 124.337921 146.607666 C 124.683067 146.98642 124.962158 147.121613 125.189484 147.121338 Z M 36.681671 147.068604 C 36.681671 147.068604 36.683624 147.068604 36.683624 147.068604 C 36.645088 147.024933 36.606617 146.975067 36.56839 146.922119 C 36.606598 146.975098 36.64315 147.024902 36.681671 147.068604 Z M 123.417999 146.465088 C 123.658844 146.461594 123.909096 146.443253 124.167999 146.412354 C 123.908844 146.443008 123.659103 146.459991 123.417999 146.463135 C 123.255257 146.465256 123.097023 146.46167 122.94339 146.451416 C 123.097069 146.461517 123.255188 146.467453 123.417999 146.465088 Z M 35.908234 145.29126 C 36.105736 145.290009 36.280579 144.994293 36.310577 145.039307 L 36.310577 145.029541 C 36.271927 144.971558 35.990929 145.481812 35.732452 145.19751 C 35.790642 145.262329 35.850838 145.291626 35.908234 145.29126 Z M 113.828156 144.861572 C 113.828156 144.861572 113.830109 144.859619 113.830109 144.859619 C 113.830109 144.661377 113.24263 144.426132 113.203156 144.392822 C 113.205025 144.395218 113.207176 144.398254 113.209015 144.400635 L 113.199249 144.400635 C 113.199249 144.400635 113.811882 144.662445 113.828156 144.861572 Z M 40.584015 143.613525 C 41.02681 143.237579 41.61235 142.824799 41.949249 142.830322 C 41.612556 142.818359 41.025921 143.235092 40.584015 143.613525 Z M 36.63089 142.830322 C 37.250885 142.510345 37.889801 142.200867 38.509796 141.890869 C 38.509796 141.890869 38.705864 141.844055 38.998077 141.746338 C 38.71394 141.839981 38.527515 141.877136 38.500031 141.890869 C 37.882614 142.199585 37.234798 142.507858 36.626984 142.826416 C 36.628082 142.828049 36.629791 142.82869 36.63089 142.830322 Z M 111.31839 142.677979 C 111.31958 142.676041 111.321854 142.67421 111.320343 142.670166 C 111.224091 142.477676 110.858665 142.15184 110.501984 141.701416 C 110.858147 142.151505 111.220329 142.480362 111.31839 142.677979 Z M 39.113312 141.705322 C 39.217163 141.668625 39.328426 141.629547 39.449249 141.580322 C 39.558899 141.530487 40.673046 140.725723 41.482452 140.324463 C 41.481796 140.323792 41.481136 140.32106 41.480499 140.320557 C 40.670502 140.720551 39.549469 141.530334 39.439484 141.580322 C 39.320316 141.631073 39.21344 141.669724 39.113312 141.705322 Z M 31.029329 140.652588 C 31.069546 140.656479 31.106905 140.649155 31.140657 140.62915 C 32.195339 140.010406 32.570065 139.124008 33.091827 138.980713 C 32.565853 139.116287 32.191353 140.007004 31.130892 140.62915 C 31.098391 140.649155 31.062794 140.65448 31.02347 140.650635 C 31.025414 140.650864 31.027399 140.652405 31.029329 140.652588 Z M 119.158234 140.627197 C 119.158234 140.627197 119.160187 140.627197 119.160187 140.627197 C 119.148468 140.615189 119.137772 140.603622 119.128937 140.590088 C 119.137558 140.603287 119.146873 140.615448 119.158234 140.627197 Z M 117.617218 140.625244 C 117.863098 140.555435 118.045158 140.519592 118.189484 140.50415 C 118.044952 140.518585 117.860268 140.552826 117.611359 140.623291 C 117.61335 140.623718 117.61515 140.624878 117.617218 140.625244 Z M 107.541046 140.177979 C 107.541435 140.126266 107.54451 140.075226 107.550812 140.025635 C 107.550812 140.025635 107.548859 140.025635 107.548859 140.025635 C 107.543037 140.075348 107.541115 140.126221 107.541046 140.177979 Z M 78.962921 136.187744 C 90.173859 136.204819 101.128822 133.984634 113.199249 129.349854 C 115.43924 128.489838 123.550568 125.129486 124.810577 123.699463 C 137.289749 119.659698 149.389435 107.39003 150.859406 93.890869 C 150.860123 93.884338 150.860657 93.877869 150.861359 93.871338 L 150.859406 93.869385 C 149.385513 107.367813 137.309479 119.619102 124.830109 123.664307 C 124.823959 123.671768 124.816505 123.682938 124.810577 123.689697 C 123.550568 125.11969 115.43924 128.480103 113.199249 129.340088 C 115.409241 127.12027 112.15033 126.64035 111.320343 124.320557 C 114.720337 124.110535 119.799713 122.639923 122.929718 121.179932 C 124.134697 120.622269 125.944115 119.767883 126.996124 118.990479 C 126.997047 118.988091 126.999115 118.983078 127.000031 118.980713 C 125.950043 119.750702 124.129944 120.609924 122.919952 121.179932 C 122.914795 121.178932 122.909492 121.178955 122.904327 121.177979 C 119.763161 122.635651 114.705032 124.101143 111.310577 124.310791 C 110.705582 124.348289 110.101707 124.366455 109.500031 124.367432 C 105.290207 124.37426 101.164154 123.510727 97.19339 122.111572 C 97.191765 122.11412 97.191132 122.116829 97.189484 122.119385 C 101.739075 123.719391 106.470978 124.620544 111.310577 124.320557 C 112.140594 126.640335 115.399475 127.120285 113.189484 129.340088 C 91.735138 137.577972 73.805862 138.189896 51.69339 132.164307 C 51.69194 132.16626 51.690933 132.168198 51.689484 132.170166 C 61.366356 134.808075 70.243393 136.174469 78.962921 136.187744 Z M 76.470734 129.189697 C 76.521324 129.1035 76.578583 129.010071 76.642609 128.9104 C 76.583611 129.002594 76.527702 129.089752 76.480499 129.170166 C 73.272209 124.342941 69.463547 119.735466 69.259796 113.650635 C 69.25647 113.655167 69.253365 113.659775 69.250031 113.664307 C 69.451553 119.751991 73.261436 124.370911 76.470734 129.189697 Z M 39.759796 128.090088 C 39.754509 128.083374 39.751354 128.077225 39.746124 128.070557 C 36.353336 126.736084 34.721611 125.856979 31.609407 124.310791 C 30.629744 122.121475 33.817795 124.63768 33.179718 121.801025 C 33.177082 121.799835 33.174541 121.798317 33.171906 121.797119 C 33.803776 124.623657 30.620693 122.11142 31.599642 124.299072 C 30.799623 123.899078 28.200735 123.060181 27.050814 122.420166 C 15.426895 115.913643 5.210086 105.388733 4.61136 91.369385 C 4.61136 91.369385 4.609407 91.369385 4.609407 91.369385 C 5.199408 105.388535 15.411459 115.930107 27.050814 122.439697 C 28.200733 123.079681 30.799623 123.930542 31.599642 124.320557 C 34.719429 125.860535 36.350002 126.750092 39.759796 128.090088 Z M 76.796906 125.875244 C 76.262032 123.939957 76.409302 121.874504 76.169952 119.929932 C 76.395187 119.944122 76.58242 119.881264 76.738312 119.76001 C 76.581635 119.877686 76.393219 119.934235 76.169952 119.920166 C 76.109924 119.420166 75.949432 118.969849 75.859406 118.349854 C 76.255989 118.210693 76.355438 117.575089 76.312531 116.670166 C 76.353729 117.568359 76.252274 118.199425 75.859406 118.345947 C 75.859589 118.347221 75.859222 118.348579 75.859406 118.349854 L 75.84964 118.349854 C 75.939636 118.969849 76.100189 119.420166 76.160187 119.920166 C 76.389656 121.865356 76.249649 123.929672 76.785187 125.865479 C 76.786575 125.866699 76.787704 125.868164 76.789093 125.869385 L 76.796906 125.875244 Z M 49.810577 124.008057 C 50.967293 123.856316 52.12323 123.329803 53.250031 123.070557 C 55.526367 122.535118 57.748772 121.842644 59.843781 120.924072 C 57.750496 121.83905 55.529655 122.526001 53.259796 123.060791 C 54.579773 122.160812 55.769318 121.220474 57.029327 120.240479 C 60.578972 117.460518 63.520664 114.409363 65.820343 110.51001 C 68.650276 105.700645 70.81073 99.550819 71.470734 94.031494 C 71.625725 92.771446 71.318504 91.47274 71.464874 90.537354 C 71.315964 91.472595 71.614235 92.7696 71.459015 94.031494 C 70.799011 99.540794 68.640511 105.700691 65.810577 110.51001 C 63.400944 109.290031 61.579796 107.420471 58.910187 106.740479 C 59.480194 106.100494 60.779419 104.299835 61.109406 103.599854 L 61.09964 103.599854 C 61.979645 97.380493 64.6101 94.74144 59.220734 96.701416 C 59.22076 96.703384 59.220707 96.705307 59.220734 96.707275 C 64.593971 94.765694 61.969215 97.396912 61.089874 103.611572 C 60.759888 104.311584 59.460632 106.10025 58.890656 106.750244 C 57.906242 107.873825 55.082664 110.250999 53.890656 110.818604 C 53.890656 110.818604 53.890656 110.820557 53.890656 110.820557 C 53.891628 110.821594 53.89164 110.823425 53.892609 110.824463 C 55.079132 110.264931 57.913456 107.876778 58.900421 106.750244 C 61.580082 107.420227 63.391167 109.291756 65.800812 110.521729 L 65.810577 110.51001 C 63.510918 114.409378 60.569248 117.46051 57.019562 120.240479 C 57.019562 120.240479 57.019562 120.238525 57.019562 120.238525 C 55.773132 121.215744 54.576283 122.163406 53.259796 123.051025 C 52.129791 123.321045 50.970581 123.840485 49.810577 123.990479 L 48.552765 112.088135 C 48.552765 112.088135 48.550812 112.088135 48.550812 112.088135 L 49.810577 124.008057 Z M 37.574249 123.371338 C 37.620487 123.268639 37.661358 123.163269 37.699249 123.056885 C 37.660606 123.163185 37.617168 123.266869 37.570343 123.369385 C 37.571774 123.36972 37.572819 123.371002 37.574249 123.371338 Z M 110.572296 122.359619 C 110.498344 122.24276 110.435265 122.114075 110.38089 121.970947 C 110.200897 121.490936 110.180328 113.299774 110.070343 111.769775 C 111.051308 111.551781 113.405067 110.903236 114.128937 110.521729 C 114.129539 110.51783 114.13028 110.513908 114.13089 110.51001 C 114.358696 110.387665 114.5821 110.256935 114.802765 110.119385 C 114.585548 110.253777 114.364426 110.380066 114.140656 110.500244 C 113.440643 110.880249 111.050568 111.540009 110.060577 111.76001 C 110.180573 113.290009 110.189178 121.479248 110.369171 121.959229 C 110.42556 122.107666 110.494812 122.239334 110.572296 122.359619 Z M 97.351593 121.76001 C 97.476906 121.255867 97.03196 120.920013 96.751984 119.832275 C 97.026978 120.921585 97.4646 121.263885 97.351593 121.76001 Z M 131.080109 115.052979 C 131.081757 115.049568 131.088943 115.042084 131.089874 115.039307 C 131.139893 114.689301 131.019867 114.259705 131.089874 113.939697 C 131.091278 113.938492 131.092377 113.936996 131.093781 113.935791 C 131.595566 111.636299 131.068405 103.610481 130.779327 100.779541 C 129.47934 88.120224 124.310295 76.168877 112.890656 69.709229 C 120.500298 70.579224 127.549965 74.091286 132.34964 80.220947 C 133.710175 81.96006 134.843521 83.981857 135.718781 86.172119 C 134.843704 83.974907 133.711426 81.94455 132.34964 80.199463 C 127.550026 74.069893 120.500237 70.559692 112.890656 69.689697 C 109.630646 69.319702 109.099731 69.679688 106.929718 69.689697 C 100.120308 69.729645 100.129288 72.039543 99.084015 63.136963 C 99.084015 63.136963 99.082062 63.136963 99.082062 63.136963 C 100.119835 72.064293 100.10498 69.749207 106.929718 69.709229 C 103.179718 69.909241 99.679779 71.039551 96.259796 72.529541 C 96.257111 72.530708 96.254662 72.53228 96.251984 72.533447 L 96.25589 72.537354 C 99.674103 71.048538 103.17202 69.910843 106.919952 69.720947 C 109.089935 69.710938 109.62088 69.350952 112.88089 69.720947 L 112.88089 69.709229 C 124.300346 76.168694 129.459564 88.12059 130.769562 100.779541 C 131.05957 103.619537 131.590118 111.68924 131.080109 113.959229 C 131.010635 114.276932 131.127365 114.704338 131.080109 115.052979 Z M 75.94339 113.62915 C 75.774605 112.482986 75.603554 111.279869 75.550812 110.19165 C 75.546791 110.190598 75.543129 110.190765 75.539093 110.189697 C 75.399323 107.454491 75.001633 106.392319 76.164093 103.304932 C 76.157883 103.308601 76.152687 103.312965 76.146515 103.31665 C 74.994301 106.396767 75.389923 107.451317 75.529327 110.179932 L 75.539093 110.189697 C 75.594864 111.272499 75.772141 112.480873 75.94339 113.62915 Z M 83.740265 112.443604 C 83.501488 112.115349 83.278305 111.783203 83.070343 111.449463 L 83.066437 111.449463 C 83.27504 111.783661 83.500839 112.115135 83.740265 112.443604 Z M 82.750031 111.439697 L 82.763702 111.439697 C 82.69175 111.228844 81.297226 109.104141 80.890656 108.310791 C 80.560638 107.680786 79.740326 106.399078 79.320343 105.799072 C 78.560333 104.719086 78.090729 103.490387 76.970734 102.6604 C 76.892975 102.644028 76.823349 102.643532 76.759796 102.654541 C 76.817558 102.6465 76.880219 102.647079 76.949249 102.6604 C 78.069244 103.490387 78.540833 104.709076 79.300812 105.799072 L 79.310577 105.799072 C 78.028458 106.364197 78.129028 108.185371 77.666046 109.332275 C 78.130936 108.189064 78.037773 106.372742 79.312531 105.802979 C 79.733154 106.404236 80.551407 107.691795 80.88089 108.310791 C 79.000885 112.330322 77.769714 110.430695 77.429718 110.980713 C 77.399574 111.028839 77.376862 111.093948 77.357452 111.174072 C 77.37674 111.098038 77.400658 111.03688 77.429718 110.990479 C 77.769714 110.440491 79.000885 112.350082 80.88089 108.320557 C 81.294243 109.107918 82.659164 111.201889 82.750031 111.439697 Z M 79.312531 105.802979 C 79.311852 105.80201 79.311256 105.800041 79.310577 105.799072 L 79.320343 105.799072 C 79.317619 105.80027 79.315239 105.801765 79.312531 105.802979 Z M 37.908234 110.619385 C 37.991169 110.48082 38.085831 110.34671 38.187531 110.217041 C 38.186005 110.216118 38.18515 110.214058 38.183624 110.213135 C 38.082176 110.343506 37.990673 110.479546 37.908234 110.619385 Z M 98.128937 110.508057 C 98.12973 110.50589 98.130104 110.502388 98.13089 110.500244 C 97.885872 110.377739 97.587158 110.18618 97.25589 109.94751 C 97.586922 110.187851 97.884949 110.383102 98.128937 110.508057 Z M 20.908236 108.480713 C 21.053669 108.481972 21.172554 108.440666 21.27347 108.367432 C 20.893652 108.628815 20.241764 108.42997 19.060579 107.371338 C 19.064779 107.381348 19.068102 107.390648 19.072298 107.400635 C 19.934061 108.169312 20.51321 108.477295 20.908236 108.480713 Z M 72.414093 107.670166 C 72.41906 107.666733 72.42646 107.66024 72.431671 107.656494 C 73.098564 105.759171 73.530251 103.975998 73.759796 102.242432 C 73.526688 103.980392 73.087341 105.767563 72.414093 107.670166 Z M 94.183624 107.295166 C 93.596275 106.716499 93.097687 106.176804 92.800812 105.789307 C 92.585205 105.440262 92.383224 105.081955 92.195343 104.715088 C 92.375664 105.06884 92.567108 105.415367 92.773468 105.752197 C 92.782944 105.764549 92.791275 105.776939 92.800812 105.789307 L 92.800812 105.799072 C 93.099617 106.185028 93.59816 106.720291 94.183624 107.295166 Z M 50.015656 106.537354 C 51.273479 106.527489 52.453941 106.291725 53.410187 105.810791 L 53.56839 106.435791 C 53.963322 106.165115 54.343117 105.8797 54.707062 105.582275 C 54.343555 105.877747 53.964497 106.159752 53.570343 106.429932 L 53.410187 105.801025 C 50.010517 107.511032 43.769802 106.130219 41.330109 102.500244 C 39.741859 100.142815 40.159527 98.713715 39.761749 96.22876 L 39.759796 96.230713 C 40.14978 98.710678 39.740128 100.139999 41.330109 102.51001 C 43.083847 105.11187 46.801533 106.562561 50.015656 106.537354 Z M 74.929718 103.150635 C 75.959717 102.550629 76.910339 101.760101 78.070343 102.840088 C 77.632423 100.033432 77.195213 94.206215 79.300812 95.136963 C 79.301392 95.129791 79.302071 95.122643 79.302765 95.115479 C 77.182068 94.134392 77.611374 99.994415 78.050812 102.810791 C 76.898811 101.748138 75.953522 102.519112 74.931671 103.107666 C 74.930969 103.121964 74.930435 103.136337 74.929718 103.150635 Z M 17.275423 101.670166 C 13.542494 83.96904 26.693834 67.781822 46.039093 69.400635 C 46.051926 69.45079 46.059887 69.497505 46.062531 69.54126 C 46.060188 69.494789 46.052841 69.444618 46.039093 69.390869 C 49.238705 69.660889 51.910496 70.77063 54.830109 71.900635 L 54.830109 71.9104 L 49.810577 78.970947 C 49.799641 79.011879 49.792858 79.050896 49.789093 79.088135 C 49.793076 79.053726 49.800552 79.018234 49.810577 78.980713 L 54.830109 71.920166 C 56.156582 72.428818 57.323769 72.7883 58.589874 73.484619 C 58.589733 73.483307 58.590015 73.482018 58.589874 73.480713 C 58.58952 73.47744 58.59024 73.47422 58.589874 73.470947 C 60.229889 74.380951 61.540497 75.43158 62.980499 76.611572 L 62.990265 76.611572 C 62.990932 76.615547 62.99157 76.619316 62.992218 76.623291 C 64.785461 78.097984 66.508118 79.840263 67.994171 81.623291 C 67.999832 81.626373 68.004089 81.627998 68.009796 81.631104 L 68.009796 81.640869 C 68.449799 82.160889 68.909241 82.530334 68.949249 82.580322 C 70.089233 84.860237 71.259888 87.050766 72.089874 89.480713 C 71.800568 89.659683 71.63353 89.913918 71.53714 90.220947 C 71.63456 89.913155 71.806793 89.660355 72.09964 89.480713 C 72.460381 90.539963 72.77372 91.564194 73.035187 92.56665 C 72.776085 91.567833 72.467056 90.545471 72.109406 89.490479 C 71.279419 87.060486 70.110718 84.870087 68.970734 82.590088 C 68.963318 82.58049 68.95668 82.570381 68.949249 82.560791 C 68.909241 82.510803 68.449799 82.139374 68.009796 81.619385 C 66.519775 79.829376 64.790283 78.069855 62.990265 76.599854 C 61.550262 75.41983 60.229645 74.369232 58.59964 73.459229 C 57.32962 72.759247 56.160126 72.400879 54.830109 71.890869 C 51.910332 70.760895 49.248878 69.649139 46.039093 69.37915 C 26.67861 67.761169 13.525282 83.963814 17.275423 101.670166 Z M 130.496124 100.801025 C 129.800919 100.740585 130.405548 99.579361 129.990265 99.209229 C 129.975266 99.196732 129.907089 99.196754 129.804718 99.19751 C 129.900421 99.196976 129.96608 99.19722 129.980499 99.209229 C 130.397369 99.580795 129.787933 100.748993 130.496124 100.801025 Z M 35.214874 100.062744 C 34.77977 98.53434 34.604424 96.87455 34.740265 95.140869 L 41.953156 91.695557 C 41.851604 91.922203 41.7654 92.108925 41.691437 92.271729 C 41.766109 92.108307 41.854774 91.920319 41.957062 91.69165 L 41.953156 91.695557 C 41.955944 91.689331 41.956207 91.686218 41.959015 91.679932 L 41.959015 91.689697 C 42.429016 90.61969 43.927681 88.849091 45.097687 88.549072 C 45.867676 88.999084 48.487762 88.76049 49.177765 88.240479 L 49.177765 88.232666 C 49.565926 88.436691 49.889549 88.681526 50.166046 88.949463 C 49.890621 88.679337 49.571835 88.430046 49.185577 88.224854 C 49.183441 88.226479 49.181858 88.229095 49.179718 88.230713 C 49.179718 88.230713 49.177765 88.232666 49.177765 88.232666 C 48.484795 88.75164 45.868908 88.990814 45.09964 88.54126 C 43.929638 88.841248 42.429016 90.609924 41.959015 91.679932 L 34.740265 95.131104 C 34.807968 94.278397 34.978405 93.419472 35.242218 92.580322 C 35.242218 92.580322 35.240265 92.582275 35.240265 92.582275 C 34.973164 93.423599 34.798462 94.284821 34.730499 95.140869 C 34.594543 96.875954 34.776077 98.534981 35.214874 100.062744 Z M 129.400421 99.189697 C 129.404587 99.189964 129.408005 99.189445 129.41214 99.189697 C 129.374771 99.187317 129.334167 99.181763 129.294952 99.177979 C 129.330154 99.181458 129.366623 99.187508 129.400421 99.189697 Z M 128.775421 99.076416 C 128.776611 99.076805 128.778137 99.076027 128.779327 99.076416 C 128.654556 99.03389 128.532196 98.976074 128.419952 98.900635 C 127.908722 98.553467 127.488152 98.2901 127.132843 98.086182 C 127.486259 98.290962 127.902489 98.555862 128.410187 98.900635 C 128.524551 98.977509 128.648132 99.034325 128.775421 99.076416 Z M 126.132843 97.592041 C 125.977737 97.530914 125.83667 97.484657 125.703156 97.44751 C 125.836624 97.484825 125.977852 97.531494 126.132843 97.592041 Z M 123.498077 96.902588 C 123.164711 96.779419 122.773071 96.614426 122.300812 96.390869 C 122.300827 96.392815 122.300797 96.394783 122.300812 96.396729 C 122.772247 96.619499 123.164421 96.781021 123.498077 96.902588 Z M 58.900421 95.44165 L 58.910187 95.44165 C 58.660187 93.871658 58.359314 92.161041 57.029327 91.051025 C 57.028278 91.05294 57.026493 91.054962 57.025421 91.056885 C 58.349979 92.167038 58.650826 93.874176 58.900421 95.44165 Z M 54.197296 92.62915 C 54.197628 92.626564 54.198917 92.623909 54.199249 92.621338 C 52.59129 92.639854 52.937771 92.32946 52.009796 91.361572 C 51.732662 89.432281 52.117626 88.322571 52.748077 87.693604 C 52.748077 87.693604 52.746124 87.693604 52.746124 87.693604 C 52.111362 88.319862 51.722042 89.426353 52.000031 91.361572 C 51.871517 91.229759 51.749733 91.074951 51.63089 90.9104 C 51.749802 91.077576 51.869888 91.234535 51.998077 91.369385 C 52.928066 92.329369 52.577274 92.63913 54.197296 92.62915 Z M 92.789093 87.609619 C 92.791092 87.606392 92.792953 87.603073 92.794952 87.599854 C 90.482788 87.574829 85.689018 84.468796 84.330109 82.580322 C 87.487701 77.84446 90.975342 74.844467 96.248077 72.545166 C 96.233376 72.64856 96.222923 72.750237 96.216827 72.8479 C 96.223198 72.749992 96.235039 72.648819 96.250031 72.545166 C 96.250031 72.545166 96.248077 72.545166 96.248077 72.545166 C 96.24865 72.541138 96.249542 72.537361 96.250031 72.533447 C 90.975876 74.832886 87.498177 77.833847 84.330109 82.570557 C 83.967331 83.114006 83.617134 83.662888 83.279327 84.217041 C 83.613914 83.669594 83.961746 83.127258 84.320343 82.590088 C 85.680328 84.480103 90.479095 87.58963 92.789093 87.609619 Z M 49.927765 85.261963 C 49.896084 85.2033 49.861412 85.146652 49.820343 85.093994 C 49.817776 85.093567 49.815094 85.092468 49.812531 85.092041 C 49.855492 85.145828 49.894367 85.202293 49.927765 85.261963 Z M 57.343781 83.834229 C 57.722706 83.147156 58.207325 82.547821 58.734406 82.006104 C 58.734406 82.006104 58.732452 82.006104 58.732452 82.006104 C 58.20393 82.546333 57.718102 83.14283 57.339874 83.830322 C 57.340435 83.830826 57.343201 83.833702 57.343781 83.834229 Z M 76.47464 83.51001 C 76.475822 83.508522 76.477364 83.507607 76.478546 83.506104 C 76.26931 83.162201 76.062904 82.801598 75.859406 82.427979 C 76.062416 82.802681 76.266228 83.1651 76.47464 83.51001 Z M 76.484406 83.496338 C 76.485588 83.494789 76.48909 83.492043 76.490265 83.490479 C 76.549591 83.281776 76.609077 83.073517 76.673859 82.867432 C 76.60849 83.075699 76.544212 83.2854 76.484406 83.496338 Z M 36.726593 83.418213 C 41.337017 79.369064 47.576561 78.920425 53.240265 81.340088 L 53.257843 81.32251 C 53.257339 81.321175 53.256222 81.320053 53.25589 81.318604 C 47.593704 78.897209 41.339504 79.352646 36.726593 83.418213 Z M 100.337921 81.308838 C 100.34127 81.307838 100.344429 81.306267 100.347687 81.304932 C 101.291641 79.799805 104.212471 80.058548 104.334015 79.349854 C 104.182121 80.04425 101.267296 79.789154 100.337921 81.308838 Z M 38.269562 60.35376 C 38.252487 60.234764 38.232719 60.114189 38.205109 59.990479 C 38.203804 59.990463 38.202503 59.990479 38.201202 59.990479 C 38.229412 60.114105 38.251904 60.234825 38.269562 60.35376 Z"/>
</svg>
