<?xml version="1.0" encoding="UTF-8"?>
<!-- Generated by Pixelmator Pro 3.5.1 -->
<svg width="155" height="183" viewBox="0 0 155 183" xmlns="http://www.w3.org/2000/svg">
    <g id="Group">
        <g id="g3">
            <g id="g13">
                <linearGradient id="linearGradient1" x1="139.18" y1="23.33" x2="22.57" y2="56.13" gradientUnits="userSpaceOnUse">
                    <stop offset="1e-05" stop-color="#f4a699" stop-opacity="1"/>
                    <stop offset="1" stop-color="#d56167" stop-opacity="1"/>
                </linearGradient>
                <path id="path57" fill="url(#linearGradient1)" stroke="none" d="M 145.839996 18.869995 C 144.980011 22.929993 144.059998 27.529999 142.700012 31.419983 C 142.609985 31.690002 141.959991 32.630005 141.440002 33.929993 C 131.23999 59.76001 106.679993 54.619995 89.350006 66.880005 C 83.540009 70.980011 78.459991 76.51001 76.480011 83.51001 C 74.799988 80.75 73.369995 76.910004 71.149994 73.940002 C 57.98999 56.419983 35.25 62.139984 19.679993 45.070007 C 17.23999 42.399994 13.920013 37 12.779999 33.619995 C 12.75 33.529999 12.76001 32.98999 12.470001 32.049988 C 11.089996 27.619995 10.76001 22.949982 9.019989 18.559998 L 9.329987 17.299988 C 16.049988 27.669983 49.480011 34.929993 62.519989 46.480011 C 70.149994 53.23999 74.670013 63.130005 75.700012 73.149994 C 77.890015 59.369995 84.109985 48.809998 96.100006 41.449982 C 108.200012 34.019989 140.440002 26.880005 146.149994 15.399994 C 146.799988 16.619995 146.079987 17.720001 145.839996 18.850006 Z"/>
            </g>
        </g>
    </g>
</svg>
