<?xml version="1.0" encoding="UTF-8"?>
<!-- Generated by Pixelmator Pro 3.5.1 -->
<svg width="155" height="183" viewBox="0 0 155 183" xmlns="http://www.w3.org/2000/svg">
    <g id="Group">
        <g id="g1">
            <path id="Path" fill="#f2966c" stroke="none" d="M 102.839996 175.149994 L 102.529999 183 C 102.220001 183 101.899994 183 101.589996 183 L 101.589996 182.369995 C 101.25 180.299988 100.869995 177.73999 98.450012 177.980011 C 96.079987 178.209991 95.709991 180.540009 95.940002 183 C 95.730011 183 95.519989 183 95.309998 183 C 95.149994 180.790009 95.329987 179.049988 96.25 177.040009 C 98.959991 174.790009 99.549988 175.130005 102.839996 175.160004 Z"/>
            <path id="path1" fill="#f9d7bc" stroke="none" d="M 109.75 177.040009 C 111.079987 178.559998 111.119995 181.089996 111.01001 183 C 110.48999 183 109.959991 183 109.440002 183 C 109.839996 179.220001 106.149994 176.410004 105.359985 178.290009 C 105.350006 177.299988 104.809998 176.190002 105.049988 175.149994 C 106.540009 175.419983 108.730011 175.859985 109.76001 177.029999 Z"/>
            <path id="path2" fill="#f9d7bc" stroke="none" d="M 105.040009 175.149994 C 104.809998 176.179993 105.339996 177.299988 105.350006 178.290009 C 105.350006 178.449982 105.119995 179.25 105.040009 181.429993 C 105.019989 182.040009 105.140015 182.449982 104.730011 183 C 104 183 103.269989 183 102.529999 183 L 102.839996 175.149994 C 103.640015 175.149994 104.160004 174.98999 105.040009 175.149994 Z"/>
            <path id="path3" fill="#f2966c" stroke="none" d="M 109.429993 183 C 109.119995 183 108.799988 183 108.48999 183 C 107.929993 180.880005 106.350006 178.75 105.040009 181.429993 C 105.130005 179.26001 105.359985 178.449982 105.350006 178.290009 C 106.140015 176.399994 109.829987 179.209991 109.429993 183 Z"/>
            <path id="path4" fill="#db7658" stroke="none" d="M 101.589996 182.369995 C 99.339996 178.230011 99.809998 179.279999 97.820007 183 C 97.609985 183 97.399994 183 97.190002 183 L 98.450012 177.980011 C 100.869995 177.73999 101.25 180.309998 101.589996 182.369995 Z"/>
            <path id="path5" fill="#202037" stroke="none" d="M 108.48999 183 C 107.230011 183 105.980011 183 104.720001 183 C 105.140015 182.449982 105.01001 182.040009 105.029999 181.429993 C 106.339996 178.75 107.929993 180.880005 108.480011 183 Z"/>
            <path id="path6" fill="#202037" stroke="none" d="M 101.589996 182.369995 L 101.589996 183 C 100.329987 183 99.079987 183 97.820007 183 C 99.809998 179.290009 99.339996 178.230011 101.589996 182.369995 Z"/>
            <path id="path7" fill="#f9d7bc" stroke="none" d="M 98.450012 177.980011 L 97.190002 183 C 96.769989 183 96.350006 183 95.929993 183 C 95.700012 180.540009 96.070007 178.209991 98.440002 177.980011 Z"/>
        </g>
        <g id="g2">
            <path id="path8" fill="#db7658" stroke="none" d="M 52 175.149994 C 51.179993 177.75 51.170013 180.369995 52 183 C 51.690002 183 51.369995 183 51.059998 183 L 49.649994 179.859985 L 47.920013 183 C 47.709991 183 47.5 183 47.290009 183 C 46.850006 178.929993 49.73999 176.48999 46.660004 177.669983 C 48.019989 175.589996 49.73999 175.309998 51.98999 175.160004 Z"/>
            <path id="path9" fill="#f9d7bc" stroke="none" d="M 54.51001 175.470001 C 53.940002 176.570007 54.839996 178.079987 54.820007 178.290009 C 54.809998 178.470001 53.890015 178.570007 54.190002 181.73999 L 54.190002 183 C 53.459991 183 52.730011 183 51.98999 183 C 51.160004 180.380005 51.170013 177.75 51.98999 175.149994 C 53.440002 175.049988 53.320007 175.25 54.5 175.459991 Z"/>
            <path id="path10" fill="#f9d7bc" stroke="none" d="M 60.160004 183 C 59.640015 183 59.109985 183 58.589996 183 C 58.75 180.779999 57.359985 176.859985 54.820007 178.290009 C 54.829987 178.079987 53.929993 176.559998 54.51001 175.470001 C 58.100006 176.119995 60.130005 176.139984 60.160004 183 Z"/>
            <path id="path11" fill="#f2966c" stroke="none" d="M 58.589996 183 C 58.170013 183 57.75 183 57.329987 183 C 57.119995 180.399994 55.890015 179.299988 54.190002 181.73999 C 53.890015 178.559998 54.809998 178.470001 54.820007 178.290009 C 57.350006 176.859985 58.73999 180.779999 58.589996 183 Z"/>
            <path id="path12" fill="#f2966c" stroke="none" d="M 47.299988 183 C 46.779999 183 46.25 183 45.730011 183 C 45.01001 181.589996 45.829987 178.959991 46.670013 177.669983 C 49.75 176.48999 46.859985 178.929993 47.299988 183 Z"/>
            <path id="path13" fill="#202037" stroke="none" d="M 57.339996 183 C 56.290009 183 55.25 183 54.200012 183 L 54.200012 181.73999 C 55.899994 179.290009 57.130005 180.399994 57.339996 183 Z"/>
            <path id="path14" fill="#202037" stroke="none" d="M 51.059998 183 C 50.01001 183 48.970001 183 47.920013 183 L 49.649994 179.859985 L 51.059998 183 Z"/>
        </g>
        <g id="g3">
            <g id="g4">
                <g id="g5">
                    <path id="path15" fill="#802d46" stroke="none" d="M 107.549988 140.01001 C 107.51001 140.309998 107.609985 140.660004 107.549988 140.949982 C 107.109985 143.029999 107.040009 145 107.549988 147.070007 C 106.170013 147.380005 106.779999 150.519989 106.920013 154.76001 C 99.079987 150.23999 100.170013 148.049988 96.410004 154.130005 L 92.019989 150.679993 L 87.940002 155.389984 L 83.549988 151.309998 L 78.839996 155.389984 C 77.600006 155.619995 75.660004 152.160004 74.76001 152.25 C 74.369995 152.290009 70.140015 157.130005 69.109985 157.579987 L 63.149994 150.98999 L 56.869995 155.380005 L 52.790009 150.049988 C 50.436676 151.25 48.083344 152.453339 45.730011 153.660004 L 41.649994 167.470001 C 41.980011 168.779999 45.369995 166.109985 46.200012 166.369995 C 46.839996 166.570007 48.26001 171.059998 49.339996 171.699982 L 55.299988 167.309998 C 56.380005 168.959991 57.920013 170.26001 59.220001 171.699982 C 61.339996 174.059998 63.040009 176.76001 65.029999 179.230011 C 67.016663 177.763336 69.003326 176.300003 70.98999 174.839996 L 75.700012 180.169983 L 80.720001 175.149994 L 85.429993 180.799988 C 86.23999 180.970001 89.329987 176.290009 90.140015 176.089996 C 92.869995 175.419983 90.970001 179.380005 97.359985 169.5 C 99.160004 171.51001 101.690002 172.649994 103.790009 174.209991 C 104.570007 174.790009 105.190002 174.230011 105.049988 175.149994 C 104.170013 174.98999 103.660004 175.149994 102.850006 175.149994 C 99.559998 175.130005 98.970001 174.779999 96.26001 177.029999 C 93.940002 178.959991 93.880005 180.419983 92.48999 182.98999 C 81.720001 182.98999 70.940002 182.98999 60.170013 182.98999 C 60.140015 176.130005 58.109985 176.100006 54.519989 175.459991 C 53.339996 175.25 53.459991 175.049988 52.01001 175.149994 C 49.76001 175.299988 48.040009 175.579987 46.679993 177.660004 C 45.829987 178.959991 45.01001 181.589996 45.73999 182.98999 C 44.480011 182.98999 43.230011 182.98999 41.970001 182.98999 C 33.76001 165.290009 41.179993 160.970001 43.540009 150.980011 C 43.609985 150.699982 43.480011 150.329987 43.540009 150.040009 C 45.76001 147.329987 44.850006 139.440002 45.579987 139.369995 C 48.640015 140.269989 51.859985 141.320007 54.98999 141.880005 C 57.559998 142.339996 58.269989 141.850006 58.440002 141.880005 C 58.609985 141.910004 60.230011 142.959991 61.579987 143.139984 C 71.75 144.440002 87.890015 144.269989 97.980011 142.51001 C 101.049988 141.970001 104.5 140.829987 107.549988 140 Z"/>
                    <path id="path16" fill="#63263f" stroke="none" d="M 115.390015 177.040009 C 115.040009 178.859985 114.23999 181.470001 113.190002 183 C 112.459991 183 111.730011 183 110.98999 183 C 111.100006 181.079987 111.070007 178.559998 109.730011 177.040009 C 113.850006 171.600006 111.410004 169.369995 110.98999 167.630005 C 110.079987 163.859985 108.269989 160.230011 108.480011 156.329987 C 108.519989 156.380005 108.850006 156.029999 109.420013 157.109985 C 110.529999 159.209991 114.540009 173.139984 115.380005 177.040009 Z"/>
                    <path id="path17" fill="#63263f" stroke="none" d="M 96.25 177.040009 C 95.329987 179.049988 95.149994 180.799988 95.309998 183 C 94.369995 183 93.429993 183 92.48999 183 C 93.880005 180.429993 93.929993 178.959991 96.26001 177.040009 Z"/>
                    <g id="g6">
                        <linearGradient id="linearGradient1" x1="46.92" y1="157.59" x2="102.97" y2="164.6" gradientUnits="userSpaceOnUse">
                            <stop offset="1e-05" stop-color="#912f59" stop-opacity="1"/>
                            <stop offset="0.86" stop-color="#df6666" stop-opacity="1"/>
                        </linearGradient>
                        <path id="path18" fill="url(#linearGradient1)" stroke="none" d="M 106.920013 154.75 C 106.920013 154.850006 106.920013 154.959991 106.920013 155.059998 C 107.079987 159.350006 108.940002 163.339996 106.609985 164.160004 C 106.279999 163.910004 99.959991 159.690002 99.549988 159.769989 C 99.100006 159.850006 97.970001 162.73999 97.350006 162.910004 C 95.26001 163.470001 95.649994 159.419983 90.450012 167.929993 L 84.799988 163.220001 L 78.519989 170.119995 L 73.190002 164.790009 C 66.820007 169.859985 68.299988 171.769989 64.089996 166.98999 L 59.230011 171.699982 C 57.929993 170.25 56.390015 168.959991 55.309998 167.309998 L 49.350006 171.699982 C 48.269989 171.049988 46.850006 166.559998 46.209991 166.369995 C 45.380005 166.109985 41.98999 168.769989 41.660004 167.470001 L 45.73999 153.660004 C 48.093323 152.459991 50.446655 151.256653 52.799988 150.049988 L 56.880005 155.380005 L 63.160004 150.98999 L 69.119995 157.579987 C 70.140015 157.130005 74.380005 152.290009 74.769989 152.25 C 75.670013 152.160004 77.609985 155.619995 78.850006 155.389984 L 83.559998 151.309998 L 87.950012 155.389984 L 92.029999 150.679993 L 96.420013 154.130005 C 100.179993 148.040009 99.089996 150.23999 106.929993 154.76001 Z"/>
                        <path id="path19" fill="#be3e5c" stroke="none" d="M 106.609985 164.169983 C 106.679993 164.230011 106.660004 165.01001 107.549988 165.73999 C 106.869995 168.809998 105.309998 171.48999 103.779999 174.209991 C 101.679993 172.649994 99.149994 171.51001 97.350006 169.5 C 90.959991 179.380005 92.859985 175.419983 90.130005 176.089996 C 89.320007 176.290009 86.23999 180.970001 85.420013 180.799988 L 80.709991 175.149994 L 75.690002 180.169983 L 70.980011 174.839996 C 68.993347 176.306671 67.006653 177.77002 65.019989 179.230011 C 63.040009 176.76001 61.339996 174.059998 59.209991 171.699982 L 64.070007 166.98999 C 68.279999 171.769989 66.799988 169.859985 73.170013 164.790009 L 78.5 170.119995 L 84.779999 163.220001 L 90.429993 167.929993 C 95.630005 159.419983 95.25 163.470001 97.329987 162.910004 C 97.950012 162.73999 99.070007 159.859985 99.529999 159.769989 C 99.940002 159.690002 106.26001 163.910004 106.589996 164.160004 Z"/>
                    </g>
                    <path id="path20" fill="#4e213c" stroke="none" d="M 115.390015 177.040009 C 114.549988 173.139984 110.540009 159.220001 109.429993 157.109985 C 108.859985 156.029999 108.529999 156.369995 108.48999 156.329987 C 107.890015 155.570007 108.630005 154.799988 106.920013 155.070007 C 106.920013 154.970001 106.920013 154.859985 106.920013 154.76001 C 106.779999 150.519989 106.170013 147.380005 107.549988 147.070007 C 107.040009 145 107.109985 143.029999 107.549988 140.949982 C 107.690002 157.130005 118.179993 162.73999 115.399994 177.040009 Z"/>
                    <path id="path21" fill="#802d46" stroke="none" d="M 111 167.619995 C 111.420013 169.369995 113.859985 171.589996 109.73999 177.029999 C 108.709991 175.859985 106.529999 175.419983 105.029999 175.149994 C 105.179993 174.230011 104.559998 174.790009 103.769989 174.209991 C 105.299988 171.48999 106.850006 168.809998 107.540009 165.73999 C 108.230011 166.309998 111.089996 168.339996 110.98999 167.619995 Z"/>
                    <path id="path22" fill="#9b3055" stroke="none" d="M 108.48999 156.320007 C 108.290009 160.220001 110.089996 163.850006 111 167.619995 C 111.100006 168.339996 108.23999 166.299988 107.549988 165.73999 C 106.660004 165.01001 106.679993 164.230011 106.609985 164.169983 C 108.950012 163.350006 107.089996 159.359985 106.920013 155.070007 C 108.630005 154.799988 107.890015 155.570007 108.48999 156.329987 Z"/>
                </g>
                <g id="g7">
                    <path id="path23" fill="#1a2045" stroke="none" d="M 43.529999 150.98999 C 41.170013 160.980011 33.75 165.299988 41.959991 183 C 41.329987 183 40.700012 183 40.079987 183 L 36.160004 176.100006 C 33.399994 179.980011 33.940002 183.589996 31.609985 177.669983 C 32.25 176.290009 37.299988 166.440002 36.940002 165.899994 C 35.920013 164.359985 32.459991 171.709991 30.040009 172.649994 C 30.040009 172.549988 30.040009 172.440002 30.040009 172.339996 C 30.839996 166.48999 30.540009 157.23999 32.079987 168.889984 C 34.899994 165.25 36.540009 161.040009 38.51001 156.959991 C 40.630005 152.589996 41.709991 147.380005 43.529999 151 Z"/>
                    <path id="path24" fill="#1a2045" stroke="none" d="M 43.529999 150.049988 C 43.470001 150.339996 43.600006 150.709991 43.529999 150.98999 C 41.709991 147.369995 40.630005 152.579987 38.51001 156.949982 C 38.440002 155.26001 36.76001 156.529999 36.309998 157.889984 C 36.309998 157.799988 35.609985 156.339996 35.529999 156.320007 C 34.459991 156.109985 31.320007 158.769989 34.75 160.399994 C 34.559998 160.609985 35.519989 163.25 30.980011 160.399994 C 31 160.329987 31.73999 159.850006 30.980011 158.98999 C 29.619995 157.449982 29.619995 159.48999 28.779999 161.660004 C 28.459991 162.5 27.940002 163.359985 27.519989 164.169983 C 27.25 162.859985 27.070007 161.419983 26.890015 160.089996 C 27.929993 159.540009 30.350006 153.549988 30.809998 153.5 C 32.529999 153.309998 30.880005 161.380005 37.089996 149.419983 C 38.320007 155.25 42.320007 148.799988 41.950012 142.829987 C 41.929993 142.440002 41.579987 140.399994 41.480011 140.320007 C 40.670013 140.720001 39.549988 141.529999 39.440002 141.579987 C 38.899994 141.809998 38.540009 141.869995 38.5 141.889984 C 37.880005 142.199982 37.230011 142.51001 36.619995 142.829987 C 32.540009 136.769989 33.380005 139.309998 31.130005 140.630005 C 30.869995 140.790009 30.380005 140.070007 29.869995 140.320007 C 28.779999 140.859985 27.899994 147.799988 26.26001 148.480011 C 26.579987 143.76001 27.670013 139.109985 30.029999 134.98999 C 34.390015 134.76001 40.5 137.579987 44.779999 139.230011 C 44.880005 142.910004 44.299988 146.480011 43.519989 150.059998 Z"/>
                    <path id="path25" fill="#274073" stroke="none" d="M 38.51001 156.949982 C 36.529999 161.029999 34.890015 165.23999 32.079987 168.880005 C 30.540009 157.230011 30.839996 166.480011 30.040009 172.329987 C 28.920013 169.75 28.089996 166.919983 27.529999 164.169983 C 27.940002 163.359985 28.459991 162.48999 28.790009 161.660004 C 30.040009 162.559998 30.670013 161.809998 30.98999 160.399994 C 35.519989 163.25 34.559998 160.609985 34.76001 160.399994 C 35.200012 159.929993 36.470001 159.449982 36.329987 157.889984 C 36.779999 156.529999 38.450012 155.26001 38.529999 156.949982 Z"/>
                    <path id="path26" fill="#572d62" stroke="none" d="M 36.630005 142.829987 C 36.559998 142.869995 36.73999 143.040009 35.369995 143.769989 C 33.269989 144.899994 31.200012 146.149994 29.089996 147.220001 C 28.549988 146.190002 28.690002 146.730011 28.149994 147.220001 C 27.309998 147.980011 26.519989 149.73999 26.579987 149.889984 C 26.940002 150.790009 28.899994 147.440002 27.209991 152.869995 C 26.940002 153.75 26.899994 154.630005 26.269989 154.75 C 26.269989 154.649994 26.269989 154.540009 26.269989 154.440002 C 26.200012 152.639984 26.149994 150.23999 26.269989 148.480011 C 27.910004 147.799988 28.790009 140.859985 29.880005 140.320007 C 30.380005 140.070007 30.869995 140.790009 31.140015 140.630005 C 33.390015 139.309998 32.549988 136.769989 36.630005 142.829987 Z"/>
                    <path id="path27" fill="#1a2045" stroke="none" d="M 31.609985 177.660004 C 30.98999 176.089996 30.170013 174.339996 30.040009 172.639984 C 32.459991 171.699982 35.929993 164.350006 36.940002 165.889984 C 37.299988 166.429993 32.23999 176.279999 31.609985 177.660004 Z"/>
                    <path id="path28" fill="#594b81" stroke="none" d="M 36.309998 157.889984 C 36.450012 159.459991 35.179993 159.929993 34.73999 160.399994 C 31.309998 158.769989 34.459991 156.109985 35.519989 156.320007 C 35.609985 156.339996 36.299988 157.799988 36.299988 157.889984 Z"/>
                    <path id="path29" fill="#274073" stroke="none" d="M 30.980011 160.399994 C 30.660004 161.809998 30.029999 162.559998 28.779999 161.660004 C 29.619995 159.48999 29.619995 157.449982 30.980011 158.98999 C 31.73999 159.850006 31 160.329987 30.980011 160.399994 Z"/>
                    <g id="g8">
                        <path id="path30" fill="#9a4078" stroke="none" d="M 41.959991 142.829987 C 42.320007 148.799988 38.320007 155.25 37.100006 149.419983 C 30.899994 161.380005 32.540009 153.309998 30.820007 153.5 C 30.359985 153.549988 27.940002 159.540009 26.899994 160.089996 C 26.660004 158.309998 26.359985 156.549988 26.269989 154.76001 C 26.899994 154.639984 26.940002 153.76001 27.209991 152.880005 C 29.450012 155.279999 28.769989 152.76001 30.980011 150.209991 C 36.48999 143.829987 36.149994 147.130005 36.940002 147.230011 C 38.179993 147.380005 39.329987 144.919983 40.079987 144.089996 C 40.390015 143.75 41.459991 142.809998 41.959991 142.829987 Z"/>
                        <path id="path31" fill="#70386f" stroke="none" d="M 40.079987 144.089996 C 39.339996 144.919983 38.179993 147.380005 36.940002 147.230011 C 37.040009 146.389984 36.779999 145.720001 36.309998 145.029999 L 38.51001 141.889984 C 38.51001 141.889984 38.910004 141.799988 39.450012 141.579987 L 40.079987 144.089996 Z"/>
                        <path id="path32" fill="#572d62" stroke="none" d="M 41.959991 142.829987 C 41.459991 142.799988 40.380005 143.75 40.079987 144.089996 L 39.450012 141.579987 C 39.559998 141.529999 40.679993 140.720001 41.48999 140.320007 C 41.589996 140.399994 41.940002 142.440002 41.959991 142.829987 Z"/>
                        <path id="path33" fill="#b094a8" stroke="none" d="M 38.51001 141.889984 L 36.309998 145.029999 C 36.25 144.940002 35.609985 146.220001 35.369995 143.769989 C 36.73999 143.029999 36.559998 142.859985 36.630005 142.829987 C 37.25 142.51001 37.890015 142.199982 38.51001 141.889984 Z"/>
                        <path id="path34" fill="#70386f" stroke="none" d="M 36.309998 145.029999 C 36.779999 145.720001 37.040009 146.389984 36.940002 147.230011 C 36.149994 147.130005 36.48999 143.829987 30.980011 150.209991 C 28.779999 152.76001 29.450012 155.269989 27.209991 152.880005 C 28.899994 147.449982 26.940002 150.799988 26.579987 149.899994 C 26.519989 149.76001 27.309998 147.98999 28.149994 147.230011 C 28.339996 148.660004 28.660004 147.449982 29.089996 147.230011 C 31.200012 146.160004 33.269989 144.910004 35.369995 143.779999 C 35.609985 146.220001 36.25 144.949982 36.309998 145.040009 Z"/>
                        <path id="path35" fill="#c45195" stroke="none" d="M 29.100006 147.220001 C 28.670013 147.440002 28.350006 148.649994 28.160004 147.220001 C 28.700012 146.730011 28.559998 146.190002 29.100006 147.220001 Z"/>
                    </g>
                </g>
            </g>
            <g id="g9">
                <path id="path36" fill="#1a2045" stroke="none" d="M 109.75 139.380005 C 109.480011 141.100006 111.100006 142.230011 111.320007 142.679993 C 111.359985 142.75 110.799988 142.369995 111.630005 143.779999 C 111.730011 143.949982 111.839996 144.25 111.940002 144.410004 C 110.420013 146.290009 111.940002 149.959991 112.570007 152.570007 C 113.73999 157.410004 114.910004 159.190002 115.709991 161.669983 C 115.829987 162.049988 115.899994 162.549988 116.019989 162.929993 C 116.480011 164.329987 117.140015 165.269989 117.589996 166.540009 C 117.649994 166.699982 117.23999 168.089996 117.899994 169.98999 C 118.070007 170.48999 121.790009 177.01001 121.350006 179.559998 C 120.019989 178.179993 119.209991 176.089996 119 176.109985 L 115.079987 183.01001 C 114.450012 183.01001 113.820007 183.01001 113.200012 183.01001 C 114.25 181.480011 115.040009 178.869995 115.399994 177.049988 C 118.179993 162.75 107.690002 157.139984 107.549988 140.959991 C 107.609985 140.669983 107.51001 140.320007 107.549988 140.019989 C 108.26001 139.829987 109.040009 139.600006 109.75 139.389984 Z"/>
                <path id="path37" fill="#572d62" stroke="none" d="M 116.649994 163.540009 C 118.200012 166.73999 120.559998 169.579987 122.769989 172.329987 L 123.399994 167.940002 L 125.440002 171.389984 C 125.019989 172.829987 124.700012 173.73999 124.179993 175.160004 C 119 175.449982 121.230011 176.23999 122.609985 180.179993 C 121.559998 181.25 121.420013 179.619995 121.350006 179.549988 C 121.779999 177 118.070007 170.470001 117.899994 169.980011 C 117.23999 168.079987 117.640015 166.690002 117.589996 166.529999 C 117.140015 165.26001 116.480011 164.320007 116.019989 162.919983 C 116.170013 162.940002 116.630005 163.51001 116.649994 163.549988 Z"/>
                <path id="path38" fill="#bf5371" stroke="none" d="M 128.890015 157.579987 C 128.630005 159.540009 127.720001 161.600006 127.320007 163.540009 C 125.429993 162.359985 124.339996 156.699982 126.059998 155.070007 C 128.149994 154.669983 127.109985 156.529999 128.880005 157.579987 Z"/>
                <path id="path39" fill="#a94b71" stroke="none" d="M 124.179993 175.149994 C 123.600006 176.73999 123.380005 178.600006 122.609985 180.169983 C 121.230011 176.220001 119 175.440002 124.179993 175.149994 Z"/>
                <path id="path40" fill="#1a2045" stroke="none" d="M 125.75 134.359985 C 124.410004 135.279999 124.950012 135.119995 125.119995 136.23999 C 123.970001 135.660004 118.380005 139.839996 119.160004 140.630005 C 118.549988 140.600006 118.600006 140.339996 117.589996 140.630005 C 115.670013 141.169983 114.130005 142.589996 113.200012 144.399994 C 112.660004 143.699982 110.790009 142.440002 111.630005 143.769989 C 110.799988 142.359985 111.350006 142.75 111.320007 142.669983 C 111.100006 142.230011 109.480011 141.089996 109.75 139.369995 C 115.640015 137.639984 121.980011 134.269989 125.75 134.350006 Z"/>
                <path id="path41" fill="#cdb6bf" stroke="none" d="M 113.200012 144.399994 C 113.200012 144.399994 113.829987 144.669983 113.829987 144.869995 C 113.829987 144.940002 112.920013 145.48999 112.890015 145.970001 C 112.470001 145.519989 112.279999 144.889984 111.950012 144.399994 C 111.839996 144.23999 111.73999 143.940002 111.640015 143.769989 C 110.799988 142.440002 112.670013 143.699982 113.209991 144.399994 Z"/>
                <path id="path42" fill="#33465b" stroke="none" d="M 128.890015 146.279999 C 128.890015 147.459991 129.089996 149.410004 128.26001 150.359985 C 127.380005 151.369995 124.869995 148.970001 125.440002 148.790009 C 127.640015 149.220001 127.410004 147.549988 127.950012 145.970001 C 128.089996 146.130005 128.609985 146.350006 128.890015 146.279999 Z"/>
                <g id="g10">
                    <path id="path43" fill="#bf5371" stroke="none" d="M 118.220001 154.75 C 114.109985 154.399994 115.839996 161.25 119.480011 156.630005 C 120.119995 157.519989 120.630005 158.449982 121.519989 159.139984 C 124.369995 155.669983 123.01001 145.790009 126.070007 155.059998 C 124.350006 156.690002 125.429993 162.350006 127.329987 163.529999 C 126.779999 166.23999 126.220001 168.720001 125.450012 171.380005 L 123.410004 167.929993 L 122.779999 172.320007 C 120.570007 169.570007 118.209991 166.730011 116.660004 163.529999 C 121.230011 162.149994 117.910004 156.799988 115.720001 161.649994 C 114.920013 159.169983 113.75 157.389984 112.579987 152.549988 C 116.089996 151.73999 116.269989 150.609985 116.5 150.669983 C 116.720001 150.720001 117.829987 154.089996 118.230011 154.75 Z"/>
                    <path id="path44" fill="#dd7480" stroke="none" d="M 116.649994 163.540009 C 116.649994 163.540009 116.170013 162.929993 116.019989 162.910004 C 115.899994 162.529999 115.829987 162.040009 115.709991 161.649994 C 117.899994 156.809998 121.220001 162.149994 116.649994 163.529999 Z"/>
                    <path id="path45" fill="#ed8f85" stroke="none" d="M 123.399994 160.399994 C 125.609985 159.889984 126.290009 164.230011 124.339996 164.480011 C 122.5 164.720001 121.429993 160.850006 123.399994 160.399994 Z"/>
                    <path id="path46" fill="#dd7480" stroke="none" d="M 118.220001 154.75 C 118.589996 155.369995 119.049988 156.040009 119.480011 156.630005 C 115.850006 161.25 114.119995 154.389984 118.220001 154.75 Z"/>
                </g>
                <path id="path47" fill="#444d67" stroke="none" d="M 120.420013 141.889984 C 119.130005 145.51001 121.450012 147.029999 124.970001 146.279999 C 127.480011 145.75 125.959991 143.75 127.950012 145.970001 C 127.410004 147.559998 127.640015 149.230011 125.440002 148.790009 C 125.01001 148.290009 126.880005 146.48999 126.220001 146.279999 C 125.959991 146.190002 125.570007 147.970001 124.339996 146.589996 C 124.25 147.459991 123.410004 147.769989 122.609985 148.160004 C 122.399994 148.269989 121.130005 148.179993 120.730011 148.470001 L 117.75 145.959991 C 116.25 145.529999 116.929993 150.26001 112.890015 145.959991 C 112.929993 145.480011 113.829987 144.929993 113.829987 144.859985 C 113.829987 144.660004 113.230011 144.419983 113.200012 144.389984 C 114.130005 142.589996 115.679993 141.169983 117.589996 140.619995 C 119.48999 140.949982 120.269989 141.820007 120.410004 141.880005 Z"/>
                <g id="g11">
                    <path id="path48" fill="#4c5662" stroke="none" d="M 112.880005 145.970001 C 116.929993 150.269989 116.25 145.540009 117.73999 145.970001 L 120.720001 148.480011 C 118.690002 149.940002 118.070007 152.429993 123.070007 148.480011 L 122.600006 148.169983 C 123.399994 147.779999 124.23999 147.470001 124.329987 146.600006 C 125.570007 147.970001 125.950012 146.199982 126.209991 146.290009 C 126.869995 146.51001 125 148.299988 125.429993 148.799988 C 124.869995 148.980011 127.369995 151.380005 128.25 150.369995 C 129.890015 149.839996 129.149994 154.25 128.880005 156.649994 C 128.850006 156.959991 128.920013 157.290009 128.880005 157.589996 C 127.109985 156.540009 128.140015 154.679993 126.059998 155.079987 C 123 145.809998 124.359985 155.690002 121.51001 159.160004 C 120.619995 158.470001 120.109985 157.540009 119.470001 156.649994 C 119.049988 156.059998 118.589996 155.389984 118.209991 154.769989 C 117.820007 154.109985 116.700012 150.73999 116.480011 150.690002 C 116.25 150.630005 116.070007 151.76001 112.559998 152.570007 C 111.929993 149.959991 110.410004 146.290009 111.929993 144.410004 C 112.26001 144.889984 112.450012 145.529999 112.869995 145.980011 Z"/>
                    <path id="path49" fill="#40585f" stroke="none" d="M 122.769989 151.929993 C 123.899994 152.040009 121.609985 158.199982 121.200012 158.209991 C 121.079987 158.209991 119.890015 156.589996 120.100006 156.169983 C 120.220001 155.929993 121.529999 155.699982 122.769989 151.929993 Z"/>
                    <path id="path50" fill="#a295a1" stroke="none" d="M 122.609985 148.160004 L 123.079987 148.470001 C 118.070007 152.419983 118.690002 149.929993 120.730011 148.470001 C 121.140015 148.179993 122.399994 148.26001 122.609985 148.160004 Z"/>
                    <path id="path51" fill="#e5d1cc" stroke="none" d="M 125.910004 151.299988 C 126.640015 150.869995 127.359985 152.609985 126.850006 152.869995 C 126.73999 152.919983 125.059998 151.809998 125.910004 151.299988 Z"/>
                </g>
                <path id="path52" fill="#393e68" stroke="none" d="M 125.119995 136.23999 C 125.399994 138.040009 126.820007 138.959991 126.220001 140.630005 C 120.839996 141.910004 122.140015 140.75 119.160004 140.630005 C 118.380005 139.839996 123.980011 135.660004 125.119995 136.23999 Z"/>
                <g id="g12">
                    <path id="path53" fill="#553e68" stroke="none" d="M 128.890015 146.279999 C 128.609985 146.339996 128.089996 146.130005 127.950012 145.970001 C 125.959991 143.76001 127.480011 145.75 124.970001 146.279999 C 121.450012 147.019989 119.130005 145.51001 120.420013 141.889984 C 120.429993 141.850006 121 141.639984 121.049988 141.419983 C 120.279999 140.839996 120.459991 141.899994 120.420013 141.889984 C 120.269989 141.839996 119.5 140.970001 117.600006 140.630005 C 118.609985 140.339996 118.559998 140.600006 119.170013 140.630005 C 122.149994 140.75 120.850006 141.910004 126.230011 140.630005 C 126.829987 138.959991 125.410004 138.029999 125.130005 136.23999 C 127.100006 137.23999 127.670013 144.630005 128.899994 146.279999 Z"/>
                    <path id="path54" fill="#9282b2" stroke="none" d="M 125.589996 140.949982 C 126.649994 140.23999 126.929993 142.440002 125.589996 141.579987 C 125.320007 141.410004 125.329987 141.130005 125.589996 140.949982 Z"/>
                    <path id="path55" fill="#e5d1cc" stroke="none" d="M 120.420013 141.889984 C 120.420013 141.889984 120.279999 140.839996 121.049988 141.419983 C 121.01001 141.639984 120.440002 141.850006 120.420013 141.889984 Z"/>
                </g>
            </g>
            <g id="g13">
                <linearGradient id="linearGradient2" x1="116.86" y1="-16.86" x2="33.75" y2="43.87" gradientUnits="userSpaceOnUse">
                    <stop offset="1e-05" stop-color="#5b3c70" stop-opacity="1"/>
                    <stop offset="1" stop-color="#222852" stop-opacity="1"/>
                </linearGradient>
                <path id="path56" fill="url(#linearGradient2)" stroke="none" d="M 147.089996 12.910004 C 146.809998 14.049988 146.660004 14.380005 146.149994 15.419983 C 140.440002 26.899994 108.200012 34.040009 96.100006 41.470001 C 84.109985 48.829987 77.890015 59.389984 75.700012 73.169983 C 74.670013 63.139984 70.149994 53.26001 62.519989 46.5 C 49.480011 34.940002 16.049988 27.690002 9.329987 17.320007 C 7.890015 15.100006 7.48999 13.350006 7.130005 10.730011 C 6.799988 8.329987 6.609985 5.919983 6.970001 3.51001 C 7.720001 7.040009 9.279999 10.720001 12.459991 12.769989 C 11.440002 9.380005 11.959991 6.029999 12.149994 2.570007 C 14.269989 8.070007 18.339996 10.679993 23.450012 13.23999 C 37.600006 20.339996 36.399994 15.100006 49.029999 12.929993 C 62.160004 10.669983 93.359985 10.679993 106.140015 13.869995 C 113.630005 15.73999 114.380005 19.730011 127.01001 15.130005 C 128.73999 14.5 131.359985 13.230011 132.970001 12.309998 C 137.540009 9.690002 142.570007 6.190002 142.230011 0.380005 C 143.109985 4.209991 143.519989 9.169983 141.76001 12.779999 C 142.470001 13.190002 144.899994 10.169983 145.209991 9.639984 C 147.070007 6.5 148.299988 -0.720001 147.720001 9.949982 C 147.700012 10.279999 147.269989 12.190002 147.089996 12.929993 Z"/>
                <linearGradient id="linearGradient3" x1="116.222216" y1="-0.731581" x2="35.288343" y2="56.093841" gradientUnits="userSpaceOnUse">
                    <stop offset="1e-05" stop-color="#5b3c70" stop-opacity="1"/>
                    <stop offset="1" stop-color="#222852" stop-opacity="1"/>
                </linearGradient>
                <path id="path57" fill="url(#linearGradient3)" stroke="none" d="M 145.839996 18.869995 C 144.980011 22.929993 144.059998 27.529999 142.700012 31.419983 C 142.609985 31.690002 141.959991 32.630005 141.440002 33.929993 C 131.23999 59.76001 106.679993 54.619995 89.350006 66.880005 C 83.540009 70.980011 78.459991 76.51001 76.480011 83.51001 C 74.799988 80.75 73.369995 76.910004 71.149994 73.940002 C 57.98999 56.419983 35.25 62.139984 19.679993 45.070007 C 17.23999 42.399994 13.920013 37 12.779999 33.619995 C 12.75 33.529999 12.76001 32.98999 12.470001 32.049988 C 11.089996 27.619995 10.76001 22.949982 9.019989 18.559998 L 9.329987 17.299988 C 16.049988 27.669983 49.480011 34.929993 62.519989 46.480011 C 70.149994 53.23999 74.670013 63.130005 75.700012 73.149994 C 77.890015 59.369995 84.109985 48.809998 96.100006 41.449982 C 108.200012 34.019989 140.440002 26.880005 146.149994 15.399994 C 146.799988 16.619995 146.079987 17.720001 145.839996 18.850006 Z"/>
                <linearGradient id="linearGradient4" x1="142.83" y1="43.18" x2="13.86" y2="114.75" gradientUnits="userSpaceOnUse">
                    <stop offset="1e-05" stop-color="#55396b" stop-opacity="1"/>
                    <stop offset="0.68" stop-color="#181e42" stop-opacity="1"/>
                </linearGradient>
                <path id="path58" fill="url(#linearGradient4)" stroke="none" d="M 76.480011 83.519989 C 75.359985 85.019989 73.630005 77.26001 69.26001 72.380005 C 67.359985 70.26001 63.549988 68.440002 62.829987 66.889984 C 62.26001 66.829987 61.440002 66.98999 61.26001 66.889984 C 54.209991 63.079987 46.369995 60.079987 38.190002 59.98999 C 20.470001 59.779999 3.829987 72.649994 4.609985 91.369995 C 5.200012 105.389984 15.410004 115.929993 27.049988 122.440002 C 28.200012 123.079987 30.799988 123.929993 31.600006 124.320007 C 34.720001 125.859985 36.350006 126.75 39.76001 128.089996 C 43.730011 129.649994 47.570007 131.049988 51.690002 132.169983 C 73.809998 138.199982 91.73999 137.589996 113.200012 129.350006 C 115.440002 128.48999 123.549988 125.130005 124.809998 123.699982 C 137.290009 119.660004 149.390015 107.389984 150.859985 93.889984 C 151.720001 86.01001 149.410004 78.839996 144.579987 72.709991 C 144.130005 72.139984 138.820007 66.540009 138.459991 66.279999 C 138.130005 66.040009 131.75 62.720001 131.23999 62.51001 C 125.720001 60.309998 119.720001 59.720001 113.820007 60 C 108.320007 60.26001 104.23999 61.419983 99.070007 63.139984 C 95.75 64.25 92.790009 66.139984 89.339996 66.910004 C 106.679993 54.649994 131.23999 59.790009 141.429993 33.959991 C 154.359985 48.630005 157.339996 84.949982 152.410004 102.529999 C 148.859985 115.209991 137.48999 128.389984 125.73999 134.380005 C 121.959991 134.299988 115.619995 137.669983 109.73999 139.399994 C 109.029999 139.609985 108.25 139.839996 107.540009 140.029999 C 104.48999 140.859985 101.040009 142.01001 97.970001 142.540009 C 87.869995 144.299988 71.73999 144.470001 61.570007 143.169983 C 60.220001 143 58.600006 141.940002 58.429993 141.910004 C 58.26001 141.880005 57.549988 142.369995 54.980011 141.910004 C 51.839996 141.350006 48.630005 140.299988 45.570007 139.399994 C 44.839996 139.470001 45.75 147.359985 43.529999 150.070007 C 44.299988 146.5 44.890015 142.919983 44.790009 139.23999 C 40.51001 137.600006 34.399994 134.779999 30.040009 135 C 8.619995 122.23999 0.100006 106.359985 0.230011 81.48999 C 0.309998 64.730011 3.589996 47.899994 12.779999 33.630005 C 13.920013 37.019989 17.25 42.410004 19.679993 45.079987 C 35.25 62.149994 57.98999 56.429993 71.149994 73.949982 C 73.380005 76.919983 74.809998 80.76001 76.480011 83.519989 Z"/>
                <path id="path59" fill="#3f2e65" stroke="none" d="M 76.480011 83.519989 C 78.459991 76.519989 83.540009 70.98999 89.350006 66.889984 C 92.790009 66.130005 95.76001 64.230011 99.079987 63.119995 C 100.119995 72.070007 100.100006 69.75 106.929993 69.709991 C 103.179993 69.910004 99.679993 71.040009 96.26001 72.529999 C 90.980011 74.829987 87.5 77.829987 84.329987 82.570007 C 81.779999 86.389984 79.76001 90.440002 79.309998 95.119995 C 77.179993 94.119995 77.609985 99.98999 78.049988 102.809998 C 76.890015 101.73999 75.940002 102.529999 74.910004 103.119995 C 75.279999 95.769989 73.459991 88.380005 68.950012 82.559998 C 68.910004 82.51001 68.450012 82.139984 68.01001 81.619995 C 66.519989 79.829987 64.790009 78.070007 62.98999 76.600006 C 61.549988 75.419983 60.230011 74.369995 58.600006 73.459991 C 57.329987 72.76001 56.160004 72.399994 54.829987 71.889984 C 51.910004 70.76001 49.25 69.649994 46.040009 69.380005 C 24.619995 67.589996 10.790009 87.609985 19.049988 107.350006 C 21.070007 112.169983 22.640015 114.049988 26.579987 117.389984 C 28.529999 119.040009 29.570007 119.959991 31.910004 121.160004 C 32.320007 121.369995 32.73999 121.600006 33.170013 121.790009 C 33.809998 124.630005 30.619995 122.109985 31.600006 124.299988 C 30.799988 123.899994 28.200012 123.059998 27.049988 122.419983 C 15.420013 115.910004 5.200012 105.380005 4.609985 91.350006 C 5.170013 91.269989 6.059998 91.459991 6.339996 91.350006 C 7.100006 91.029999 15.600006 80.980011 19.209991 81.619995 C 22.200012 76.559998 26.929993 73.01001 32.079987 70.320007 C 32.209991 65.949982 39.309998 64.790009 38.200012 59.959991 C 46.380005 60.059998 54.209991 63.049988 61.269989 66.859985 C 61.450012 66.959991 62.26001 66.799988 62.839996 66.859985 C 63.570007 68.410004 67.369995 70.230011 69.269989 72.350006 C 73.640015 77.230011 75.369995 84.98999 76.48999 83.48999 Z"/>
                <path id="path60" fill="#543b79" stroke="none" d="M 113.829987 59.980011 C 113.200012 63.589996 120.48999 65.899994 121.359985 70.48999 C 133.540009 76.190002 136.01001 85.329987 136.890015 86.019989 C 137.029999 86.130005 138.149994 85.570007 140.029999 86.959991 C 141.410004 87.98999 145.290009 91.630005 146.619995 92.290009 C 147.480011 92.720001 150.609985 92.690002 150.859985 93.859985 C 149.390015 107.369995 137.299988 119.630005 124.809998 123.669983 C 125.309998 123.109985 126.600006 120.019989 127.01001 118.959991 C 127.5 118.600006 131 115.309998 131.089996 115.040009 C 131.140015 114.690002 131.019989 114.26001 131.089996 113.940002 C 140.309998 106 139.420013 89.26001 132.350006 80.199982 C 127.549988 74.070007 120.5 70.559998 112.890015 69.690002 C 109.630005 69.320007 109.100006 69.679993 106.929993 69.690002 C 100.109985 69.730011 100.130005 72.049988 99.079987 63.100006 C 104.25 61.380005 108.329987 60.220001 113.829987 59.959991 Z"/>
                <path id="path61" fill="#9a4078" stroke="none" d="M 97.190002 122.119995 C 101.73999 123.720001 106.470001 124.619995 111.309998 124.320007 C 112.140015 126.639984 115.399994 127.119995 113.190002 129.339996 C 91.730011 137.579987 73.799988 138.190002 51.679993 132.160004 C 55.299988 127.25 57.119995 131.029999 64.390015 132.470001 C 68.420013 133.269989 72.529999 133.540009 76.630005 133.410004 C 80.910004 129 82.649994 121.559998 82.75 115.519989 C 82.75 115.070007 83.320007 113.399994 82.75 111.440002 L 83.059998 111.440002 C 85.970001 116.109985 92.059998 120.309998 97.179993 122.109985 Z"/>
                <path id="path62" fill="#74528c" stroke="none" d="M 150.859985 93.869995 C 150.609985 92.699982 147.480011 92.730011 146.619995 92.299988 C 145.290009 91.630005 141.410004 87.98999 140.029999 86.970001 C 138.149994 85.579987 137.029999 86.139984 136.890015 86.029999 C 136.01001 85.339996 133.529999 76.199982 121.359985 70.5 C 120.48999 65.899994 113.200012 63.600006 113.829987 59.98999 C 119.730011 59.709991 125.720001 60.299988 131.25 62.5 C 131.75 62.699982 138.140015 66.019989 138.470001 66.269989 C 138.829987 66.529999 144.140015 72.130005 144.589996 72.699982 C 149.420013 78.839996 151.720001 86 150.869995 93.880005 Z"/>
                <path id="path63" fill="#594b81" stroke="none" d="M 38.200012 59.980011 C 39.309998 64.799988 32.209991 65.970001 32.079987 70.339996 C 26.929993 73.029999 22.200012 76.570007 19.209991 81.639984 C 15.600006 80.98999 7.100006 91.049988 6.339996 91.369995 C 6.070007 91.480011 5.179993 91.290009 4.609985 91.369995 C 3.829987 72.639984 20.470001 59.779999 38.190002 59.98999 Z"/>
                <path id="path64" fill="#6f285a" stroke="none" d="M 78.679993 123.690002 C 80.200012 121.049988 81.630005 118.369995 82.76001 115.529999 C 82.660004 121.570007 80.920013 129.01001 76.640015 133.419983 C 72.540009 133.540009 68.440002 133.279999 64.399994 132.480011 C 57.130005 131.029999 55.309998 127.26001 51.690002 132.169983 C 47.570007 131.049988 43.730011 129.649994 39.76001 128.089996 C 38.160004 126.059998 39.190002 125.76001 40.700012 124.01001 C 43.839996 124.410004 46.660004 124.410004 49.799988 124.01001 C 50.959991 123.859985 52.119995 123.329987 53.25 123.070007 C 59.5 121.600006 65.350006 118.959991 69.25 113.660004 C 69.450012 119.75 73.26001 124.369995 76.470001 129.190002 C 77.279999 127.809998 80 124.570007 78.670013 123.699982 Z"/>
                <path id="path65" fill="#98478f" stroke="none" d="M 127.01001 118.980011 C 126.600006 120.040009 125.309998 123.119995 124.809998 123.690002 C 123.549988 125.119995 115.440002 128.480011 113.200012 129.339996 C 115.410004 127.119995 112.149994 126.639984 111.320007 124.320007 C 114.720001 124.109985 119.799988 122.639984 122.929993 121.179993 C 124.140015 120.619995 125.959991 119.76001 127.01001 118.980011 Z"/>
                <path id="path66" fill="#572d62" stroke="none" d="M 37.570007 123.369995 C 38.670013 123.630005 39.579987 123.850006 40.709991 124 C 39.200012 125.75 38.170013 126.049988 39.769989 128.079987 C 36.359985 126.73999 34.730011 125.859985 31.609985 124.309998 C 30.630005 122.119995 33.820007 124.639984 33.179993 121.799988 C 34.609985 122.440002 36.040009 123 37.570007 123.369995 Z"/>
                <path id="path67" fill="#572d62" stroke="none" d="M 79.309998 95.130005 C 79.26001 95.639984 79.329987 96.179993 79.309998 96.699982 C 79.130005 101.559998 80.48999 107.299988 83.079987 111.449982 L 82.769989 111.449982 C 82.720001 111.269989 81.299988 109.109985 80.890015 108.309998 C 80.559998 107.679993 79.73999 106.399994 79.320007 105.799988 C 78.559998 104.720001 78.089996 103.48999 76.970001 102.660004 C 76.399994 102.540009 76.230011 103.26001 76.190002 103.290009 C 74.730011 104.139984 74.440002 105.369995 73.679993 106.429993 C 73.529999 106.639984 72.730011 107.48999 72.420013 107.690002 C 74.730011 101.139984 74.299988 95.949982 72.109985 89.48999 C 71.279999 87.059998 70.109985 84.869995 68.970001 82.589996 C 73.480011 88.410004 75.299988 95.790009 74.929993 103.149994 C 75.959991 102.549988 76.910004 101.76001 78.070007 102.839996 C 77.630005 100.019989 77.190002 94.149994 79.329987 95.149994 Z"/>
                <path id="path68" fill="#3b73a7" stroke="none" d="M 131.089996 113.959991 C 131.600006 111.690002 131.070007 103.619995 130.779999 100.779999 C 129.480011 88.119995 124.309998 76.169983 112.890015 69.709991 C 120.5 70.579987 127.549988 74.089996 132.350006 80.220001 C 139.429993 89.269989 140.309998 106.019989 131.089996 113.959991 Z"/>
                <path id="path69" fill="#572d62" stroke="none" d="M 76.799988 125.880005 C 77.5 126.5 76.109985 128.139984 78.679993 123.679993 C 80.01001 124.549988 77.290009 127.790009 76.480011 129.169983 C 73.269989 124.339996 69.459991 119.730011 69.26001 113.639984 C 69.529999 113.279999 69.640015 112.769989 69.890015 112.380005 C 71.049988 117.209991 72.940002 122.480011 76.790009 125.869995 Z"/>
                <g id="g14">
                    <path id="path70" fill="#fab790" stroke="none" d="M 82.76001 111.449982 C 83.329987 113.410004 82.76001 115.079987 82.76001 115.529999 C 81.630005 118.369995 80.200012 121.049988 78.679993 123.690002 C 76.109985 128.149994 77.5 126.51001 76.799988 125.889984 C 76.26001 123.949982 76.410004 121.880005 76.170013 119.929993 C 78.549988 120.079987 76.809998 111.980011 77.429993 110.98999 C 77.769989 110.440002 79 112.350006 80.880005 108.320007 C 81.299988 109.119995 82.709991 111.279999 82.76001 111.459991 Z"/>
                    <path id="path71" fill="#be4e4b" stroke="none" d="M 75.850006 118.350006 C 75.940002 118.970001 76.100006 119.419983 76.160004 119.919983 C 76.390015 121.869995 76.25 123.940002 76.790009 125.880005 C 72.940002 122.48999 71.049988 117.220001 69.890015 112.389984 C 70.640015 111.209991 71.959991 108.929993 72.399994 107.679993 C 72.700012 107.480011 73.5 106.630005 73.660004 106.419983 C 74.220001 110.440002 75.269989 114.320007 75.859985 118.350006 Z"/>
                    <path id="path72" fill="#f9d7bc" stroke="none" d="M 79.309998 105.799988 C 79.730011 106.399994 80.549988 107.690002 80.880005 108.309998 C 79 112.329987 77.769989 110.429993 77.429993 110.980011 C 76.809998 111.970001 78.549988 120.070007 76.170013 119.919983 C 76.109985 119.419983 75.950012 118.970001 75.859985 118.350006 C 77 117.949982 75.709991 113.5 75.549988 110.190002 C 78.829987 111.059998 77.209991 106.730011 79.320007 105.799988 Z"/>
                    <path id="path73" fill="#f9ead8" stroke="none" d="M 79.309998 105.799988 C 77.200012 106.730011 78.829987 111.059998 75.540009 110.190002 C 75.399994 107.449982 75 106.389984 76.170013 103.290009 C 76.209991 103.26001 76.380005 102.549988 76.950012 102.660004 C 78.070007 103.48999 78.540009 104.709991 79.299988 105.799988 Z"/>
                    <path id="path74" fill="#f2966c" stroke="none" d="M 75.540009 110.190002 C 75.709991 113.48999 77 117.949982 75.850006 118.350006 C 75.269989 114.320007 74.209991 110.449982 73.649994 106.419983 C 74.410004 105.359985 74.700012 104.130005 76.160004 103.279999 C 74.98999 106.389984 75.390015 107.440002 75.529999 110.179993 Z"/>
                </g>
                <g id="g15">
                    <g id="g16">
                        <path id="path75" fill="#86c4d4" stroke="none" d="M 112.880005 69.709991 C 124.299988 76.169983 129.459991 88.119995 130.769989 100.779999 C 129.660004 101 130.450012 99.619995 129.98999 99.209991 C 129.929993 99.160004 129.029999 99.309998 128.420013 98.899994 C 124.929993 96.529999 125.679993 97.98999 122.299988 96.389984 C 122.209991 86.209991 111.679993 76.669983 100.329987 81.329987 C 101.670013 79.109985 107.26001 80.660004 102.369995 77.559998 C 100.220001 76.199982 95.73999 76.029999 96.25 72.540009 C 99.670013 71.049988 103.170013 69.910004 106.920013 69.720001 C 109.089996 69.709991 109.619995 69.350006 112.880005 69.720001 Z"/>
                        <path id="path76" fill="#aad6df" stroke="none" d="M 96.25 72.529999 C 95.73999 76.019989 100.220001 76.190002 102.369995 77.549988 C 107.26001 80.649994 101.670013 79.089996 100.329987 81.320007 C 98.170013 82.209991 94 85.660004 92.799988 87.600006 C 90.48999 87.579987 85.690002 84.470001 84.329987 82.579987 C 87.48999 77.839996 90.980011 74.839996 96.26001 72.540009 Z"/>
                        <path id="path77" fill="#d4dde1" stroke="none" d="M 92.799988 87.600006 C 89.48999 92.929993 89.519989 100.48999 92.799988 105.799988 C 89.390015 101.380005 90.100006 97.639984 89.5 97.329987 C 88.399994 97.619995 81.130005 98.730011 80.709991 98.589996 C 79.920013 98.309998 80.609985 96.459991 79.299988 96.709991 C 79.320007 96.190002 79.25 95.649994 79.299988 95.139984 C 79.75 90.459991 81.769989 86.410004 84.320007 82.589996 C 85.679993 84.480011 90.480011 87.589996 92.790009 87.609985 Z"/>
                        <path id="path78" fill="#aad6df" stroke="none" d="M 130.769989 100.779999 C 131.059998 103.619995 131.589996 111.690002 131.079987 113.959991 C 131.01001 114.279999 131.130005 114.709991 131.079987 115.059998 C 130.98999 115.329987 127.48999 118.619995 127 118.980011 C 125.950012 119.75 124.130005 120.609985 122.920013 121.179993 C 121.01001 120.809998 118.890015 122.26001 116.329987 122.75 C 115.01001 118.98999 113.519989 114.429993 114.130005 110.51001 C 118.98999 107.899994 122.339996 101.75 122.290009 96.389984 C 125.670013 97.98999 124.920013 96.529999 128.410004 98.899994 C 129.019989 99.309998 129.920013 99.160004 129.980011 99.209991 C 130.440002 99.619995 129.649994 101 130.76001 100.779999 Z"/>
                        <path id="path79" fill="#e5d1cc" stroke="none" d="M 92.799988 105.799988 C 93.76001 107.040009 96.779999 109.820007 98.130005 110.51001 C 97.670013 111.75 96.579987 116.910004 96.559998 117.26001 C 96.359985 121.070007 97.880005 121.049988 97.190002 122.119995 C 92.070007 120.320007 85.980011 116.119995 83.070007 111.449982 C 80.480011 107.299988 79.130005 101.559998 79.299988 96.699982 C 80.609985 96.459991 79.920013 98.309998 80.709991 98.579987 C 81.130005 98.730011 88.399994 97.609985 89.5 97.320007 C 90.100006 97.630005 89.390015 101.369995 92.799988 105.790009 Z"/>
                        <path id="path80" fill="#d4dde1" stroke="none" d="M 110.059998 111.76001 C 110.179993 113.290009 110.190002 121.480011 110.369995 121.959991 C 111.23999 124.25 114.769989 123.040009 116.329987 122.73999 C 118.890015 122.25 121.01001 120.809998 122.920013 121.169983 C 119.779999 122.630005 114.709991 124.100006 111.309998 124.309998 C 106.470001 124.609985 101.730011 123.709991 97.190002 122.109985 C 97.890015 121.029999 96.359985 121.059998 96.559998 117.25 C 96.579987 116.899994 97.670013 111.75 98.130005 110.5 C 102.040009 112.470001 105.859985 112.669983 110.059998 111.76001 Z"/>
                        <path id="path81" fill="#d4dde1" stroke="none" d="M 114.140015 110.51001 C 113.529999 114.429993 115.019989 118.98999 116.339996 122.75 C 114.769989 123.049988 111.25 124.26001 110.380005 121.970001 C 110.200012 121.48999 110.179993 113.299988 110.070007 111.769989 C 111.059998 111.549988 113.450012 110.889984 114.149994 110.51001 Z"/>
                    </g>
                    <g id="g17">
                        <path id="path82" fill="#1a2045" stroke="none" d="M 122.299988 96.380005 C 122.350006 101.73999 119 107.889984 114.140015 110.5 C 113.440002 110.880005 111.049988 111.540009 110.059998 111.76001 C 105.859985 112.679993 102.040009 112.480011 98.130005 110.5 C 96.769989 109.820007 93.75 107.029999 92.799988 105.790009 C 89.519989 100.480011 89.48999 92.919983 92.799988 87.589996 C 94 85.660004 98.170013 82.199982 100.329987 81.309998 C 111.679993 76.649994 122.200012 86.199982 122.299988 96.369995 Z"/>
                        <g id="g18">
                            <path id="path83" fill="#e1d0d9" stroke="none" d="M 114.140015 86.339996 C 115.730011 86.910004 115.320007 87.549988 115.399994 87.600006 C 114.859985 87.600006 115.190002 88.199982 115.089996 88.540009 C 114.649994 89.980011 112.890015 91.949982 111.320007 91.98999 C 109.839996 92.029999 109.799988 91.309998 109.119995 90.730011 C 108.480011 89.769989 108.890015 88.859985 109.119995 87.910004 C 110.769989 86.459991 111.869995 85.529999 114.140015 86.339996 Z"/>
                            <g id="g19">
                                <path id="path84" fill="#c97996" stroke="none" d="M 111.630005 92.929993 C 114.279999 95.290009 114.899994 96.089996 117.910004 93.559998 C 121.190002 105.470001 106.910004 113.549988 97.980011 106.109985 C 91.179993 100.440002 93.48999 89.630005 97.980011 86.339996 C 102.570007 82.980011 100.049988 86.48999 101.899994 88.690002 C 96.059998 92.790009 99.779999 102.660004 107.079987 100.459991 C 109.709991 99.669983 112.019989 95.619995 111.630005 92.929993 Z"/>
                                <path id="path85" fill="#a94b71" stroke="none" d="M 117.910004 93.559998 C 114.899994 96.089996 114.279999 95.290009 111.630005 92.929993 C 111.630005 92.880005 111.170013 93.070007 111.320007 91.98999 C 112.890015 91.949982 114.649994 89.980011 115.089996 88.540009 C 116.269989 90.059998 117.399994 91.679993 117.910004 93.559998 Z"/>
                            </g>
                            <path id="path86" fill="#e1d0d9" stroke="none" d="M 107.23999 85.399994 C 107.820007 86.109985 107.470001 87.309998 106.929993 87.910004 C 104.320007 90.839996 99.190002 86.859985 102.380005 84.769989 C 104.779999 83.199982 107 85.309998 107.23999 85.399994 Z"/>
                            <path id="path87" fill="#eee6ea" stroke="none" d="M 115.390015 87.600006 C 115.320007 87.549988 115.720001 86.910004 114.130005 86.339996 C 116.940002 83.079987 121.730011 91.769989 115.390015 87.600006 Z"/>
                            <g id="g20">
                                <path id="path88" fill="#1196d1" stroke="none" d="M 106.609985 93.25 C 106.519989 95.769989 103.839996 92.559998 103.160004 94.350006 C 102.23999 96.790009 106.190002 95.109985 105.359985 97.019989 C 99.859985 99.399994 103.589996 89.089996 106.619995 93.25 Z"/>
                                <path id="path89" fill="#572d62" stroke="none" d="M 109.119995 87.910004 C 108.890015 88.869995 108.480011 89.779999 109.119995 90.730011 C 108.220001 89.970001 107.48999 88.919983 106.920013 87.910004 C 107.459991 87.299988 107.820007 86.109985 107.230011 85.399994 C 107.589996 85.540009 109.880005 85.25 110.049988 86.179993 C 110.070007 86.299988 109.369995 86.809998 109.109985 87.910004 Z"/>
                            </g>
                            <path id="path90" fill="#274073" stroke="none" d="M 105.350006 97.01001 C 106.179993 95.109985 102.230011 96.779999 103.149994 94.339996 C 103.829987 92.549988 106.51001 95.76001 106.600006 93.23999 C 107.480011 94.449982 106.579987 96.470001 105.339996 97.01001 Z"/>
                            <path id="path91" fill="#eee6ea" stroke="none" d="M 111.790009 82.26001 C 112.790009 82.26001 113.399994 84 112.420013 84.459991 C 110.839996 85.190002 109.980011 82.269989 111.790009 82.26001 Z"/>
                        </g>
                    </g>
                </g>
                <g id="g21">
                    <path id="path92" fill="#3b73a7" stroke="none" d="M 46.040009 69.399994 C 46.149994 69.829987 45.850006 70 45.730011 70.339996 C 39.089996 75.699982 31.700012 80.619995 28.160004 88.699982 C 27.779999 89.570007 27.920013 91.230011 27.529999 92.149994 C 25.799988 96.339996 23.910004 100.51001 22.200012 104.699982 C 21.5 106.419983 22.429993 110.389984 19.059998 107.369995 C 10.799988 87.619995 24.630005 67.600006 46.049988 69.399994 Z"/>
                    <path id="path93" fill="#e5d1cc" stroke="none" d="M 68.01001 81.639984 C 68.450012 82.160004 68.910004 82.529999 68.950012 82.579987 C 70.089996 84.859985 71.26001 87.049988 72.089996 89.480011 C 70.910004 90.209991 71.690002 92.160004 71.459991 94.029999 C 70.799988 99.540009 68.640015 105.699982 65.809998 110.51001 C 63.399994 109.290009 61.579987 107.419983 58.910004 106.73999 C 59.480011 106.100006 60.779999 104.299988 61.109985 103.600006 C 63.309998 98.949982 63.26001 94.540009 61.420013 89.790009 C 61.059998 88.850006 59.790009 86.419983 59.220001 85.709991 C 59.920013 86.290009 64.839996 83.359985 65.339996 82.889984 C 66.980011 81.339996 64.959991 79.970001 68.01001 81.630005 Z"/>
                    <path id="path94" fill="#5383b5" stroke="none" d="M 45.730011 70.339996 C 44.109985 74.720001 35.829987 79.089996 35.369995 84.779999 C 31.549988 89.100006 29.890015 96.600006 31.920013 102.040009 C 31.859985 101.949982 31.140015 101.410004 30.820007 100.160004 C 29.309998 99.699982 27.709991 116.269989 26.579987 117.419983 C 22.640015 114.079987 21.059998 112.190002 19.049988 107.380005 C 22.420013 110.399994 21.48999 106.429993 22.190002 104.709991 C 23.899994 100.51001 25.790009 96.339996 27.519989 92.160004 C 27.899994 91.23999 27.769989 89.579987 28.149994 88.709991 C 31.690002 80.630005 39.079987 75.709991 45.720001 70.350006 Z"/>
                    <path id="path95" fill="#76a9cc" stroke="none" d="M 54.829987 71.910004 L 49.809998 78.970001 C 49.459991 80.279999 52.890015 79.630005 53.26001 81.320007 C 47.019989 78.649994 40.059998 79.470001 35.369995 84.769989 C 35.820007 79.079987 44.109985 74.720001 45.730011 70.329987 C 45.859985 69.98999 46.149994 69.820007 46.040009 69.389984 C 49.23999 69.660004 51.910004 70.769989 54.829987 71.899994 Z"/>
                    <path id="path96" fill="#7780b2" stroke="none" d="M 31.920013 102.029999 C 32.48999 102.959991 32.920013 104.699982 33.48999 105.480011 C 32.970001 110.713326 32.446655 115.943321 31.920013 121.169983 C 29.579987 119.980011 28.529999 119.049988 26.589996 117.399994 C 27.709991 116.25 29.320007 99.679993 30.829987 100.139984 C 31.149994 101.399994 31.869995 101.929993 31.929993 102.019989 Z"/>
                    <path id="path97" fill="#9282b2" stroke="none" d="M 38.200012 110.190002 C 35.649994 113.419983 39.279999 119.630005 37.570007 123.369995 C 36.040009 123.01001 34.609985 122.440002 33.179993 121.799988 C 32.76001 121.609985 32.339996 121.380005 31.920013 121.169983 C 32.440002 115.936668 32.963348 110.706673 33.48999 105.480011 C 34.140015 106.359985 37.410004 109.709991 38.200012 110.190002 Z"/>
                    <path id="path98" fill="#baccdb" stroke="none" d="M 62.98999 76.609985 C 63.440002 79.290009 59.149994 80.540009 57.339996 83.829987 C 57.049988 83.570007 54.48999 81.779999 54.200012 81.630005 C 54.200012 78.839996 58.929993 76.5 58.589996 73.470001 C 60.230011 74.380005 61.540009 75.429993 62.980011 76.609985 Z"/>
                    <path id="path99" fill="#d4dde1" stroke="none" d="M 68.01001 81.639984 C 64.959991 79.970001 66.980011 81.350006 65.339996 82.899994 C 64.839996 83.380005 59.929993 86.299988 59.220001 85.720001 C 59.140015 85.619995 57.549988 84.029999 57.339996 83.839996 C 59.149994 80.549988 63.429993 79.299988 62.98999 76.619995 C 64.790009 78.100006 66.519989 79.850006 68.01001 81.639984 Z"/>
                    <path id="path100" fill="#a2c1d8" stroke="none" d="M 58.589996 73.480011 C 58.929993 76.51001 54.209991 78.850006 54.200012 81.639984 C 54.160004 81.619995 53.829987 81.570007 53.26001 81.329987 C 52.890015 79.639984 49.459991 80.290009 49.809998 78.980011 L 54.829987 71.919983 C 56.160004 72.429993 57.329987 72.790009 58.600006 73.48999 Z"/>
                    <path id="path101" fill="#b595bf" stroke="none" d="M 48.549988 112.079987 L 49.809998 124.01001 C 46.670013 124.410004 43.850006 124.410004 40.709991 124.01001 C 39.579987 123.869995 38.670013 123.639984 37.570007 123.380005 C 39.269989 119.639984 35.640015 113.429993 38.200012 110.199982 C 41.290009 112.079987 45.029999 112.449982 48.559998 112.079987 Z"/>
                    <path id="path102" fill="#b595bf" stroke="none" d="M 72.399994 107.679993 C 71.959991 108.929993 70.640015 111.199982 69.890015 112.389984 C 69.640015 112.779999 69.529999 113.279999 69.26001 113.649994 C 65.359985 118.959991 59.5 121.589996 53.26001 123.059998 C 54.579987 122.160004 55.769989 121.220001 57.029999 120.23999 C 60.579987 117.459991 63.519989 114.410004 65.820007 110.51001 C 68.649994 105.699982 70.809998 99.549988 71.470001 94.029999 C 71.700012 92.160004 70.910004 90.209991 72.100006 89.480011 C 74.299988 95.940002 74.730011 101.130005 72.410004 107.679993 Z"/>
                    <path id="path103" fill="#d6b1cd" stroke="none" d="M 53.890015 110.820007 C 56.329987 113.419983 55.690002 117.119995 57.029999 120.230011 C 55.779999 121.209991 54.579987 122.160004 53.26001 123.049988 C 52.130005 123.320007 50.970001 123.839996 49.809998 123.98999 L 48.549988 112.059998 C 50.149994 111.889984 52.470001 111.470001 53.880005 110.799988 Z"/>
                    <path id="path104" fill="#1a2045" stroke="none" d="M 53.26001 81.320007 C 53.829987 81.559998 54.160004 81.609985 54.200012 81.630005 C 54.48999 81.779999 57.049988 83.570007 57.339996 83.829987 C 57.549988 84.019989 59.140015 85.609985 59.220001 85.709991 C 59.790009 86.419983 61.049988 88.839996 61.420013 89.790009 C 61.820007 92.480011 58.790009 91.26001 57.339996 90.419983 C 57.429993 90.230011 57.630005 87.429993 58.279999 86.5 C 57.279999 86.130005 57.5 86.829987 56.079987 86.970001 C 54.859985 85.149994 51.809998 85.429993 49.799988 85.089996 C 49.549988 85.049988 47.309998 83.139984 45.089996 84.779999 C 39.619995 84.339996 35.149994 89.850006 34.730011 95.139984 C 33.929993 105.350006 44.019989 112.970001 53.559998 106.440002 C 56.920013 104.139984 59.26001 100.889984 59.209991 96.709991 C 64.600006 94.76001 61.970001 97.389984 61.089996 103.609985 C 60.76001 104.309998 59.459991 106.100006 58.890015 106.75 C 57.899994 107.880005 55.049988 110.279999 53.869995 110.829987 C 52.450012 111.48999 50.130005 111.919983 48.540009 112.089996 C 45.01001 112.459991 41.279999 112.089996 38.179993 110.209991 C 37.390015 109.730011 34.119995 106.389984 33.470001 105.5 C 32.899994 104.720001 32.470001 102.970001 31.899994 102.049988 C 29.869995 96.609985 31.529999 89.109985 35.350006 84.790009 C 40.040009 79.48999 46.98999 78.669983 53.23999 81.339996 Z"/>
                    <path id="path105" fill="#e5c6d5" stroke="none" d="M 65.809998 110.51001 C 63.51001 114.410004 60.570007 117.459991 57.019989 120.23999 C 55.679993 117.119995 56.320007 113.419983 53.880005 110.829987 C 55.059998 110.279999 57.910004 107.880005 58.899994 106.75 C 61.579987 107.419983 63.390015 109.290009 65.799988 110.519989 Z"/>
                    <path id="path106" fill="#462247" stroke="none" d="M 61.100006 103.600006 C 61.980011 97.380005 64.609985 94.73999 59.220001 96.699982 C 59.209991 95.730011 58.940002 95.679993 58.910004 95.440002 C 58.660004 93.869995 58.359985 92.160004 57.029999 91.049988 C 57.119995 90.880005 57.25 90.609985 57.339996 90.419983 C 58.790009 91.26001 61.820007 92.480011 61.420013 89.790009 C 63.25 94.529999 63.309998 98.949982 61.109985 103.600006 Z"/>
                    <path id="path107" fill="#c97996" stroke="none" d="M 41.329987 94.5 C 41.609985 102.639984 52.790009 101.880005 54.200012 95.440002 L 58.910004 95.440002 C 58.950012 95.669983 59.209991 95.720001 59.220001 96.699982 C 59.279999 100.880005 56.940002 104.119995 53.570007 106.429993 L 53.410004 105.799988 C 50.01001 107.51001 43.769989 106.130005 41.329987 102.5 C 39.73999 100.139984 40.160004 98.709991 39.76001 96.220001 L 41.329987 94.48999 Z"/>
                    <path id="path108" fill="#b15e86" stroke="none" d="M 41.959991 91.679993 C 41.410004 92.910004 41.279999 92.949982 41.329987 94.5 L 39.76001 96.230011 C 40.149994 98.709991 39.73999 100.139984 41.329987 102.51001 C 43.769989 106.130005 50.01001 107.519989 53.410004 105.809998 L 53.570007 106.440002 C 44.029999 112.980011 33.940002 105.350006 34.73999 95.139984 L 41.959991 91.690002 Z"/>
                    <path id="path109" fill="#70386f" stroke="none" d="M 45.100006 84.769989 C 43.660004 85.829987 43.959991 87.869995 45.100006 88.540009 C 43.929993 88.839996 42.429993 90.609985 41.959991 91.679993 L 34.73999 95.130005 C 35.160004 89.839996 39.619995 84.329987 45.100006 84.769989 Z"/>
                    <path id="path110" fill="#e1d0d9" stroke="none" d="M 57.339996 90.419983 C 57.25 90.600006 57.119995 90.880005 57.029999 91.049988 C 56.679993 91.690002 55.070007 92.609985 54.209991 92.619995 C 52.589996 92.639984 52.940002 92.329987 52.01001 91.359985 C 51.230011 85.929993 55.709991 87 56.089996 86.970001 C 57.5 86.829987 57.279999 86.119995 58.290009 86.5 C 57.640015 87.429993 57.440002 90.23999 57.350006 90.419983 Z"/>
                    <path id="path111" fill="#e5c6d5" stroke="none" d="M 49.809998 85.089996 C 50.5 85.949982 49.950012 87.649994 49.179993 88.230011 C 48.48999 88.75 45.869995 88.98999 45.100006 88.540009 C 43.959991 87.869995 43.660004 85.839996 45.100006 84.769989 C 47.320007 83.130005 49.559998 85.040009 49.809998 85.079987 Z"/>
                    <path id="path112" fill="#572d62" stroke="none" d="M 56.079987 86.970001 C 55.700012 87.01001 51.220001 85.929993 52 91.359985 C 51.220001 90.559998 50.730011 89.040009 49.179993 88.220001 C 49.940002 87.639984 50.5 85.940002 49.809998 85.079987 C 51.820007 85.419983 54.869995 85.149994 56.089996 86.959991 Z"/>
                    <path id="path113" fill="#9a4078" stroke="none" d="M 58.910004 95.440002 L 54.200012 95.440002 C 54.359985 94.720001 54.089996 93.470001 54.200012 92.619995 C 55.070007 92.619995 56.679993 91.690002 57.019989 91.049988 C 58.350006 92.160004 58.649994 93.869995 58.899994 95.440002 Z"/>
                    <g id="g22">
                        <path id="path114" fill="#1a2045" stroke="none" d="M 49.179993 88.230011 C 50.73999 89.049988 51.230011 90.559998 52 91.369995 C 52.929993 92.329987 52.579987 92.639984 54.200012 92.630005 C 54.089996 93.480011 54.359985 94.730011 54.200012 95.449982 C 52.790009 101.889984 41.619995 102.649994 41.329987 94.51001 C 41.279999 92.949982 41.410004 92.919983 41.959991 91.690002 C 42.429993 90.619995 43.929993 88.850006 45.100006 88.549988 C 45.869995 89 48.48999 88.76001 49.179993 88.23999 Z"/>
                        <path id="path115" fill="#274073" stroke="none" d="M 49.179993 93.559998 C 50.070007 95.269989 50.589996 96.649994 48.23999 97.329987 C 45.100006 95.929993 45.940002 92.709991 49.179993 93.559998 Z"/>
                        <path id="path116" fill="#3b73a7" stroke="none" d="M 49.179993 93.559998 C 45.940002 92.709991 45.100006 95.919983 48.23999 97.329987 C 43.850006 98.589996 44.829987 91.589996 48.709991 92.309998 C 49.690002 92.48999 49.149994 93.51001 49.179993 93.570007 Z"/>
                    </g>
                </g>
            </g>
        </g>
    </g>
</svg>
